solid Created by Gmsh
facet normal 0 -0 -1
  outer loop
    vertex 10 3000 0
    vertex 10 2625 0
    vertex 7.5 2625 0
  endloop
endfacet
facet normal -0 0 -1
  outer loop
    vertex 10 2625 0
    vertex 7.5 2250 0
    vertex 7.5 2625 0
  endloop
endfacet
facet normal 0 -0 -1
  outer loop
    vertex 10 2625 0
    vertex 10 2250 0
    vertex 7.5 2250 0
  endloop
endfacet
facet normal 0 -0 -1
  outer loop
    vertex 7.5 2625 0
    vertex 7.5 2250 0
    vertex 5 2250 0
  endloop
endfacet
facet normal -0 0 -1
  outer loop
    vertex 10 2250 0
    vertex 7.5 1875 0
    vertex 7.5 2250 0
  endloop
endfacet
facet normal 0 0 -1
  outer loop
    vertex 7.5 1875 0
    vertex 5 1875 0
    vertex 7.5 2250 0
  endloop
endfacet
facet normal -0 0 -1
  outer loop
    vertex 7.5 1875 0
    vertex 5 1500 0
    vertex 5 1875 0
  endloop
endfacet
facet normal -0 0 -1
  outer loop
    vertex 7.5 2250 0
    vertex 5 1875 0
    vertex 5 2250 0
  endloop
endfacet
facet normal 0 -0 -1
  outer loop
    vertex 10 2250 0
    vertex 10 1875 0
    vertex 7.5 1875 0
  endloop
endfacet
facet normal -0 0 -1
  outer loop
    vertex 10 1875 0
    vertex 7.5 1500 0
    vertex 7.5 1875 0
  endloop
endfacet
facet normal 0 -0 -1
  outer loop
    vertex 10 1875 0
    vertex 10 1500 0
    vertex 7.5 1500 0
  endloop
endfacet
facet normal 0 -0 -1
  outer loop
    vertex 7.5 1875 0
    vertex 7.5 1500 0
    vertex 5 1500 0
  endloop
endfacet
facet normal 0 -0 -1
  outer loop
    vertex 5 2250 0
    vertex 5 1875 0
    vertex 2.5 1875 0
  endloop
endfacet
facet normal -0 0 -1
  outer loop
    vertex 5 1875 0
    vertex 2.5 1500 0
    vertex 2.5 1875 0
  endloop
endfacet
facet normal 0 -0 -1
  outer loop
    vertex 5 1875 0
    vertex 5 1500 0
    vertex 2.5 1500 0
  endloop
endfacet
facet normal 0 -0 -1
  outer loop
    vertex 2.5 1875 0
    vertex 2.5 1500 0
    vertex 0 1500 0
  endloop
endfacet
facet normal -0 0 -1
  outer loop
    vertex 10 1500 0
    vertex 7.5 1125 0
    vertex 7.5 1500 0
  endloop
endfacet
facet normal 0 0 -1
  outer loop
    vertex 7.5 1125 0
    vertex 5 1125 0
    vertex 7.5 1500 0
  endloop
endfacet
facet normal -0 0 -1
  outer loop
    vertex 7.5 1125 0
    vertex 5 750 0
    vertex 5 1125 0
  endloop
endfacet
facet normal -0 0 -1
  outer loop
    vertex 7.5 1500 0
    vertex 5 1125 0
    vertex 5 1500 0
  endloop
endfacet
facet normal 0 0 -1
  outer loop
    vertex 5 750 0
    vertex 2.5 750 0
    vertex 5 1125 0
  endloop
endfacet
facet normal 0 0 -1
  outer loop
    vertex 2.5 750 0
    vertex 2.5 1125 0
    vertex 5 1125 0
  endloop
endfacet
facet normal 0 0 -1
  outer loop
    vertex 2.5 750 0
    vertex 0 750 0
    vertex 2.5 1125 0
  endloop
endfacet
facet normal 0 0 -1
  outer loop
    vertex 5 1125 0
    vertex 2.5 1125 0
    vertex 5 1500 0
  endloop
endfacet
facet normal -0 0 -1
  outer loop
    vertex 5 750 0
    vertex 2.5 375 0
    vertex 2.5 750 0
  endloop
endfacet
facet normal 0 0 -1
  outer loop
    vertex 2.5 375 0
    vertex 0 375 0
    vertex 2.5 750 0
  endloop
endfacet
facet normal -0 0 -1
  outer loop
    vertex 2.5 375 0
    vertex 0 0 0
    vertex 0 375 0
  endloop
endfacet
facet normal -0 0 -1
  outer loop
    vertex 2.5 750 0
    vertex 0 375 0
    vertex 0 750 0
  endloop
endfacet
facet normal -0 0 -1
  outer loop
    vertex 5 1500 0
    vertex 2.5 1125 0
    vertex 2.5 1500 0
  endloop
endfacet
facet normal 0 0 -1
  outer loop
    vertex 2.5 1125 0
    vertex 0 1125 0
    vertex 2.5 1500 0
  endloop
endfacet
facet normal -0 0 -1
  outer loop
    vertex 2.5 1125 0
    vertex 0 750 0
    vertex 0 1125 0
  endloop
endfacet
facet normal -0 0 -1
  outer loop
    vertex 2.5 1500 0
    vertex 0 1125 0
    vertex 0 1500 0
  endloop
endfacet
facet normal 0 -0 -1
  outer loop
    vertex 10 1500 0
    vertex 10 1125 0
    vertex 7.5 1125 0
  endloop
endfacet
facet normal -0 0 -1
  outer loop
    vertex 10 1125 0
    vertex 7.5 750 0
    vertex 7.5 1125 0
  endloop
endfacet
facet normal 0 -0 -1
  outer loop
    vertex 10 1125 0
    vertex 10 750 0
    vertex 7.5 750 0
  endloop
endfacet
facet normal 0 -0 -1
  outer loop
    vertex 7.5 1125 0
    vertex 7.5 750 0
    vertex 5 750 0
  endloop
endfacet
facet normal -0 0 -1
  outer loop
    vertex 10 750 0
    vertex 7.5 375 0
    vertex 7.5 750 0
  endloop
endfacet
facet normal 0 0 -1
  outer loop
    vertex 7.5 375 0
    vertex 5 375 0
    vertex 7.5 750 0
  endloop
endfacet
facet normal -0 0 -1
  outer loop
    vertex 7.5 375 0
    vertex 5 0 0
    vertex 5 375 0
  endloop
endfacet
facet normal -0 0 -1
  outer loop
    vertex 7.5 750 0
    vertex 5 375 0
    vertex 5 750 0
  endloop
endfacet
facet normal 0 -0 -1
  outer loop
    vertex 10 750 0
    vertex 10 375 0
    vertex 7.5 375 0
  endloop
endfacet
facet normal -0 0 -1
  outer loop
    vertex 10 375 0
    vertex 7.5 0 0
    vertex 7.5 375 0
  endloop
endfacet
facet normal 0 -0 -1
  outer loop
    vertex 10 375 0
    vertex 10 0 0
    vertex 7.5 0 0
  endloop
endfacet
facet normal 0 -0 -1
  outer loop
    vertex 7.5 375 0
    vertex 7.5 0 0
    vertex 5 0 0
  endloop
endfacet
facet normal 0 -0 -1
  outer loop
    vertex 5 750 0
    vertex 5 375 0
    vertex 2.5 375 0
  endloop
endfacet
facet normal -0 0 -1
  outer loop
    vertex 5 375 0
    vertex 2.5 0 0
    vertex 2.5 375 0
  endloop
endfacet
facet normal 0 -0 -1
  outer loop
    vertex 5 375 0
    vertex 5 0 0
    vertex 2.5 0 0
  endloop
endfacet
facet normal 0 -0 -1
  outer loop
    vertex 2.5 375 0
    vertex 2.5 0 0
    vertex 0 0 0
  endloop
endfacet
facet normal 0 -0 -1
  outer loop
    vertex 0 1500 0
    vertex 0 1125 0
    vertex -2.5 1125 0
  endloop
endfacet
facet normal -0 0 -1
  outer loop
    vertex 0 1125 0
    vertex -2.5 750 0
    vertex -2.5 1125 0
  endloop
endfacet
facet normal 0 -0 -1
  outer loop
    vertex 0 1125 0
    vertex 0 750 0
    vertex -2.5 750 0
  endloop
endfacet
facet normal 0 -0 -1
  outer loop
    vertex -2.5 1125 0
    vertex -2.5 750 0
    vertex -5 750 0
  endloop
endfacet
facet normal -0 0 -1
  outer loop
    vertex 0 750 0
    vertex -2.5 375 0
    vertex -2.5 750 0
  endloop
endfacet
facet normal 0 0 -1
  outer loop
    vertex -2.5 375 0
    vertex -5 375 0
    vertex -2.5 750 0
  endloop
endfacet
facet normal -0 0 -1
  outer loop
    vertex -2.5 375 0
    vertex -5 0 0
    vertex -5 375 0
  endloop
endfacet
facet normal -0 0 -1
  outer loop
    vertex -2.5 750 0
    vertex -5 375 0
    vertex -5 750 0
  endloop
endfacet
facet normal 0 -0 -1
  outer loop
    vertex 0 750 0
    vertex 0 375 0
    vertex -2.5 375 0
  endloop
endfacet
facet normal -0 0 -1
  outer loop
    vertex 0 375 0
    vertex -2.5 0 0
    vertex -2.5 375 0
  endloop
endfacet
facet normal 0 -0 -1
  outer loop
    vertex 0 375 0
    vertex 0 0 0
    vertex -2.5 0 0
  endloop
endfacet
facet normal 0 -0 -1
  outer loop
    vertex -2.5 375 0
    vertex -2.5 0 0
    vertex -5 0 0
  endloop
endfacet
facet normal 0 -0 -1
  outer loop
    vertex -5 750 0
    vertex -5 375 0
    vertex -7.5 375 0
  endloop
endfacet
facet normal -0 0 -1
  outer loop
    vertex -5 375 0
    vertex -7.5 0 0
    vertex -7.5 375 0
  endloop
endfacet
facet normal 0 -0 -1
  outer loop
    vertex -5 375 0
    vertex -5 0 0
    vertex -7.5 0 0
  endloop
endfacet
facet normal 0 -0 -1
  outer loop
    vertex -7.5 375 0
    vertex -7.5 0 0
    vertex -10 0 0
  endloop
endfacet
facet normal 0 0 -1
  outer loop
    vertex -10 0 0
    vertex -10 375 0
    vertex -7.5 375 0
  endloop
endfacet
facet normal 0 0 -1
  outer loop
    vertex -10 375 0
    vertex -7.5 750 0
    vertex -7.5 375 0
  endloop
endfacet
facet normal 0 0 -1
  outer loop
    vertex -10 375 0
    vertex -10 750 0
    vertex -7.5 750 0
  endloop
endfacet
facet normal 0 0 -1
  outer loop
    vertex -7.5 375 0
    vertex -7.5 750 0
    vertex -5 750 0
  endloop
endfacet
facet normal 0 0 -1
  outer loop
    vertex -10 750 0
    vertex -7.5 1125 0
    vertex -7.5 750 0
  endloop
endfacet
facet normal 0 0 -1
  outer loop
    vertex -7.5 1125 0
    vertex -5 1125 0
    vertex -7.5 750 0
  endloop
endfacet
facet normal 0 0 -1
  outer loop
    vertex -7.5 1125 0
    vertex -5 1500 0
    vertex -5 1125 0
  endloop
endfacet
facet normal 0 0 -1
  outer loop
    vertex -7.5 750 0
    vertex -5 1125 0
    vertex -5 750 0
  endloop
endfacet
facet normal 0 0 -1
  outer loop
    vertex -10 750 0
    vertex -10 1125 0
    vertex -7.5 1125 0
  endloop
endfacet
facet normal 0 0 -1
  outer loop
    vertex -10 1125 0
    vertex -7.5 1500 0
    vertex -7.5 1125 0
  endloop
endfacet
facet normal 0 0 -1
  outer loop
    vertex -10 1125 0
    vertex -10 1500 0
    vertex -7.5 1500 0
  endloop
endfacet
facet normal 0 0 -1
  outer loop
    vertex -7.5 1125 0
    vertex -7.5 1500 0
    vertex -5 1500 0
  endloop
endfacet
facet normal 0 0 -1
  outer loop
    vertex -5 750 0
    vertex -5 1125 0
    vertex -2.5 1125 0
  endloop
endfacet
facet normal 0 0 -1
  outer loop
    vertex -5 1125 0
    vertex -2.5 1500 0
    vertex -2.5 1125 0
  endloop
endfacet
facet normal 0 0 -1
  outer loop
    vertex -5 1125 0
    vertex -5 1500 0
    vertex -2.5 1500 0
  endloop
endfacet
facet normal 0 0 -1
  outer loop
    vertex -2.5 1125 0
    vertex -2.5 1500 0
    vertex 0 1500 0
  endloop
endfacet
facet normal 0 0 -1
  outer loop
    vertex -10 1500 0
    vertex -7.5 1875 0
    vertex -7.5 1500 0
  endloop
endfacet
facet normal 0 0 -1
  outer loop
    vertex -7.5 1875 0
    vertex -5 1875 0
    vertex -7.5 1500 0
  endloop
endfacet
facet normal 0 0 -1
  outer loop
    vertex -7.5 1875 0
    vertex -5 2250 0
    vertex -5 1875 0
  endloop
endfacet
facet normal 0 0 -1
  outer loop
    vertex -7.5 1500 0
    vertex -5 1875 0
    vertex -5 1500 0
  endloop
endfacet
facet normal 0 0 -1
  outer loop
    vertex -5 2250 0
    vertex -2.5 2250 0
    vertex -5 1875 0
  endloop
endfacet
facet normal 0 -0 -1
  outer loop
    vertex -2.5 2250 0
    vertex -2.5 1875 0
    vertex -5 1875 0
  endloop
endfacet
facet normal 0 0 -1
  outer loop
    vertex -2.5 2250 0
    vertex 0 2250 0
    vertex -2.5 1875 0
  endloop
endfacet
facet normal 0 0 -1
  outer loop
    vertex -5 1875 0
    vertex -2.5 1875 0
    vertex -5 1500 0
  endloop
endfacet
facet normal 0 0 -1
  outer loop
    vertex -5 2250 0
    vertex -2.5 2625 0
    vertex -2.5 2250 0
  endloop
endfacet
facet normal 0 0 -1
  outer loop
    vertex -2.5 2625 0
    vertex 0 2625 0
    vertex -2.5 2250 0
  endloop
endfacet
facet normal 0 0 -1
  outer loop
    vertex -2.5 2625 0
    vertex 0 3000 0
    vertex 0 2625 0
  endloop
endfacet
facet normal 0 0 -1
  outer loop
    vertex -2.5 2250 0
    vertex 0 2625 0
    vertex 0 2250 0
  endloop
endfacet
facet normal 0 0 -1
  outer loop
    vertex -5 1500 0
    vertex -2.5 1875 0
    vertex -2.5 1500 0
  endloop
endfacet
facet normal 0 0 -1
  outer loop
    vertex -2.5 1875 0
    vertex 0 1875 0
    vertex -2.5 1500 0
  endloop
endfacet
facet normal 0 0 -1
  outer loop
    vertex -2.5 1875 0
    vertex 0 2250 0
    vertex 0 1875 0
  endloop
endfacet
facet normal 0 0 -1
  outer loop
    vertex -2.5 1500 0
    vertex 0 1875 0
    vertex 0 1500 0
  endloop
endfacet
facet normal 0 0 -1
  outer loop
    vertex -10 1500 0
    vertex -10 1875 0
    vertex -7.5 1875 0
  endloop
endfacet
facet normal 0 0 -1
  outer loop
    vertex -10 1875 0
    vertex -7.5 2250 0
    vertex -7.5 1875 0
  endloop
endfacet
facet normal 0 0 -1
  outer loop
    vertex -10 1875 0
    vertex -10 2250 0
    vertex -7.5 2250 0
  endloop
endfacet
facet normal 0 0 -1
  outer loop
    vertex -7.5 1875 0
    vertex -7.5 2250 0
    vertex -5 2250 0
  endloop
endfacet
facet normal 0 0 -1
  outer loop
    vertex -10 2250 0
    vertex -7.5 2625 0
    vertex -7.5 2250 0
  endloop
endfacet
facet normal 0 0 -1
  outer loop
    vertex -7.5 2625 0
    vertex -5 2625 0
    vertex -7.5 2250 0
  endloop
endfacet
facet normal 0 0 -1
  outer loop
    vertex -7.5 2625 0
    vertex -5 3000 0
    vertex -5 2625 0
  endloop
endfacet
facet normal 0 0 -1
  outer loop
    vertex -7.5 2250 0
    vertex -5 2625 0
    vertex -5 2250 0
  endloop
endfacet
facet normal 0 0 -1
  outer loop
    vertex -10 2250 0
    vertex -10 2625 0
    vertex -7.5 2625 0
  endloop
endfacet
facet normal 0 0 -1
  outer loop
    vertex -10 2625 0
    vertex -7.5 3000 0
    vertex -7.5 2625 0
  endloop
endfacet
facet normal 0 0 -1
  outer loop
    vertex -10 2625 0
    vertex -10 3000 0
    vertex -7.5 3000 0
  endloop
endfacet
facet normal 0 0 -1
  outer loop
    vertex -7.5 2625 0
    vertex -7.5 3000 0
    vertex -5 3000 0
  endloop
endfacet
facet normal 0 0 -1
  outer loop
    vertex -5 2250 0
    vertex -5 2625 0
    vertex -2.5 2625 0
  endloop
endfacet
facet normal 0 0 -1
  outer loop
    vertex -5 2625 0
    vertex -2.5 3000 0
    vertex -2.5 2625 0
  endloop
endfacet
facet normal 0 0 -1
  outer loop
    vertex -5 2625 0
    vertex -5 3000 0
    vertex -2.5 3000 0
  endloop
endfacet
facet normal 0 0 -1
  outer loop
    vertex -2.5 2625 0
    vertex -2.5 3000 0
    vertex 0 3000 0
  endloop
endfacet
facet normal 0 0 -1
  outer loop
    vertex 0 1500 0
    vertex 0 1875 0
    vertex 2.5 1875 0
  endloop
endfacet
facet normal 0 0 -1
  outer loop
    vertex 0 1875 0
    vertex 2.5 2250 0
    vertex 2.5 1875 0
  endloop
endfacet
facet normal 0 0 -1
  outer loop
    vertex 0 1875 0
    vertex 0 2250 0
    vertex 2.5 2250 0
  endloop
endfacet
facet normal 0 0 -1
  outer loop
    vertex 2.5 1875 0
    vertex 2.5 2250 0
    vertex 5 2250 0
  endloop
endfacet
facet normal 0 0 -1
  outer loop
    vertex 0 2250 0
    vertex 2.5 2625 0
    vertex 2.5 2250 0
  endloop
endfacet
facet normal 0 0 -1
  outer loop
    vertex 2.5 2625 0
    vertex 5 2625 0
    vertex 2.5 2250 0
  endloop
endfacet
facet normal 0 0 -1
  outer loop
    vertex 2.5 2625 0
    vertex 5 3000 0
    vertex 5 2625 0
  endloop
endfacet
facet normal 0 0 -1
  outer loop
    vertex 2.5 2250 0
    vertex 5 2625 0
    vertex 5 2250 0
  endloop
endfacet
facet normal 0 0 -1
  outer loop
    vertex 0 2250 0
    vertex 0 2625 0
    vertex 2.5 2625 0
  endloop
endfacet
facet normal 0 0 -1
  outer loop
    vertex 0 2625 0
    vertex 2.5 3000 0
    vertex 2.5 2625 0
  endloop
endfacet
facet normal 0 0 -1
  outer loop
    vertex 0 2625 0
    vertex 0 3000 0
    vertex 2.5 3000 0
  endloop
endfacet
facet normal 0 0 -1
  outer loop
    vertex 2.5 2625 0
    vertex 2.5 3000 0
    vertex 5 3000 0
  endloop
endfacet
facet normal 0 0 -1
  outer loop
    vertex 5 2250 0
    vertex 5 2625 0
    vertex 7.5 2625 0
  endloop
endfacet
facet normal 0 0 -1
  outer loop
    vertex 5 2625 0
    vertex 7.5 3000 0
    vertex 7.5 2625 0
  endloop
endfacet
facet normal 0 0 -1
  outer loop
    vertex 5 2625 0
    vertex 5 3000 0
    vertex 7.5 3000 0
  endloop
endfacet
facet normal 0 0 -1
  outer loop
    vertex 7.5 2625 0
    vertex 7.5 3000 0
    vertex 10 3000 0
  endloop
endfacet
endsolid Created by Gmsh
