solid Created by Gmsh
facet normal 0 -0 -1
  outer loop
    vertex 10 2000 0
    vertex 10 1875 0
    vertex 8.75 1875 0
  endloop
endfacet
facet normal -0 0 -1
  outer loop
    vertex 10 1875 0
    vertex 8.75 1750 0
    vertex 8.75 1875 0
  endloop
endfacet
facet normal 0 -0 -1
  outer loop
    vertex 10 1875 0
    vertex 10 1750 0
    vertex 8.75 1750 0
  endloop
endfacet
facet normal 0 -0 -1
  outer loop
    vertex 8.75 1875 0
    vertex 8.75 1750 0
    vertex 7.5 1750 0
  endloop
endfacet
facet normal -0 0 -1
  outer loop
    vertex 10 1750 0
    vertex 8.75 1625 0
    vertex 8.75 1750 0
  endloop
endfacet
facet normal 0 0 -1
  outer loop
    vertex 8.75 1625 0
    vertex 7.5 1625 0
    vertex 8.75 1750 0
  endloop
endfacet
facet normal -0 0 -1
  outer loop
    vertex 8.75 1625 0
    vertex 7.5 1500 0
    vertex 7.5 1625 0
  endloop
endfacet
facet normal -0 0 -1
  outer loop
    vertex 8.75 1750 0
    vertex 7.5 1625 0
    vertex 7.5 1750 0
  endloop
endfacet
facet normal 0 -0 -1
  outer loop
    vertex 10 1750 0
    vertex 10 1625 0
    vertex 8.75 1625 0
  endloop
endfacet
facet normal -0 0 -1
  outer loop
    vertex 10 1625 0
    vertex 8.75 1500 0
    vertex 8.75 1625 0
  endloop
endfacet
facet normal 0 -0 -1
  outer loop
    vertex 10 1625 0
    vertex 10 1500 0
    vertex 8.75 1500 0
  endloop
endfacet
facet normal 0 -0 -1
  outer loop
    vertex 8.75 1625 0
    vertex 8.75 1500 0
    vertex 7.5 1500 0
  endloop
endfacet
facet normal 0 -0 -1
  outer loop
    vertex 7.5 1750 0
    vertex 7.5 1625 0
    vertex 6.25 1625 0
  endloop
endfacet
facet normal -0 0 -1
  outer loop
    vertex 7.5 1625 0
    vertex 6.25 1500 0
    vertex 6.25 1625 0
  endloop
endfacet
facet normal 0 -0 -1
  outer loop
    vertex 7.5 1625 0
    vertex 7.5 1500 0
    vertex 6.25 1500 0
  endloop
endfacet
facet normal 0 -0 -1
  outer loop
    vertex 6.25 1625 0
    vertex 6.25 1500 0
    vertex 5 1500 0
  endloop
endfacet
facet normal -0 0 -1
  outer loop
    vertex 10 1500 0
    vertex 8.75 1375 0
    vertex 8.75 1500 0
  endloop
endfacet
facet normal 0 0 -1
  outer loop
    vertex 8.75 1375 0
    vertex 7.5 1375 0
    vertex 8.75 1500 0
  endloop
endfacet
facet normal -0 0 -1
  outer loop
    vertex 8.75 1375 0
    vertex 7.5 1250 0
    vertex 7.5 1375 0
  endloop
endfacet
facet normal -0 0 -1
  outer loop
    vertex 8.75 1500 0
    vertex 7.5 1375 0
    vertex 7.5 1500 0
  endloop
endfacet
facet normal 0 0 -1
  outer loop
    vertex 7.5 1250 0
    vertex 6.25 1250 0
    vertex 7.5 1375 0
  endloop
endfacet
facet normal 0 0 -1
  outer loop
    vertex 6.25 1250 0
    vertex 6.25 1375 0
    vertex 7.5 1375 0
  endloop
endfacet
facet normal 0 0 -1
  outer loop
    vertex 6.25 1250 0
    vertex 5 1250 0
    vertex 6.25 1375 0
  endloop
endfacet
facet normal 0 0 -1
  outer loop
    vertex 7.5 1375 0
    vertex 6.25 1375 0
    vertex 7.5 1500 0
  endloop
endfacet
facet normal -0 0 -1
  outer loop
    vertex 7.5 1250 0
    vertex 6.25 1125 0
    vertex 6.25 1250 0
  endloop
endfacet
facet normal 0 0 -1
  outer loop
    vertex 6.25 1125 0
    vertex 5 1125 0
    vertex 6.25 1250 0
  endloop
endfacet
facet normal -0 0 -1
  outer loop
    vertex 6.25 1125 0
    vertex 5 1000 0
    vertex 5 1125 0
  endloop
endfacet
facet normal -0 0 -1
  outer loop
    vertex 6.25 1250 0
    vertex 5 1125 0
    vertex 5 1250 0
  endloop
endfacet
facet normal -0 0 -1
  outer loop
    vertex 7.5 1500 0
    vertex 6.25 1375 0
    vertex 6.25 1500 0
  endloop
endfacet
facet normal 0 0 -1
  outer loop
    vertex 6.25 1375 0
    vertex 5 1375 0
    vertex 6.25 1500 0
  endloop
endfacet
facet normal -0 0 -1
  outer loop
    vertex 6.25 1375 0
    vertex 5 1250 0
    vertex 5 1375 0
  endloop
endfacet
facet normal -0 0 -1
  outer loop
    vertex 6.25 1500 0
    vertex 5 1375 0
    vertex 5 1500 0
  endloop
endfacet
facet normal 0 -0 -1
  outer loop
    vertex 10 1500 0
    vertex 10 1375 0
    vertex 8.75 1375 0
  endloop
endfacet
facet normal -0 0 -1
  outer loop
    vertex 10 1375 0
    vertex 8.75 1250 0
    vertex 8.75 1375 0
  endloop
endfacet
facet normal 0 -0 -1
  outer loop
    vertex 10 1375 0
    vertex 10 1250 0
    vertex 8.75 1250 0
  endloop
endfacet
facet normal 0 -0 -1
  outer loop
    vertex 8.75 1375 0
    vertex 8.75 1250 0
    vertex 7.5 1250 0
  endloop
endfacet
facet normal -0 0 -1
  outer loop
    vertex 10 1250 0
    vertex 8.75 1125 0
    vertex 8.75 1250 0
  endloop
endfacet
facet normal 0 0 -1
  outer loop
    vertex 8.75 1125 0
    vertex 7.5 1125 0
    vertex 8.75 1250 0
  endloop
endfacet
facet normal -0 0 -1
  outer loop
    vertex 8.75 1125 0
    vertex 7.5 1000 0
    vertex 7.5 1125 0
  endloop
endfacet
facet normal -0 0 -1
  outer loop
    vertex 8.75 1250 0
    vertex 7.5 1125 0
    vertex 7.5 1250 0
  endloop
endfacet
facet normal 0 -0 -1
  outer loop
    vertex 10 1250 0
    vertex 10 1125 0
    vertex 8.75 1125 0
  endloop
endfacet
facet normal -0 0 -1
  outer loop
    vertex 10 1125 0
    vertex 8.75 1000 0
    vertex 8.75 1125 0
  endloop
endfacet
facet normal 0 -0 -1
  outer loop
    vertex 10 1125 0
    vertex 10 1000 0
    vertex 8.75 1000 0
  endloop
endfacet
facet normal 0 -0 -1
  outer loop
    vertex 8.75 1125 0
    vertex 8.75 1000 0
    vertex 7.5 1000 0
  endloop
endfacet
facet normal 0 -0 -1
  outer loop
    vertex 7.5 1250 0
    vertex 7.5 1125 0
    vertex 6.25 1125 0
  endloop
endfacet
facet normal -0 0 -1
  outer loop
    vertex 7.5 1125 0
    vertex 6.25 1000 0
    vertex 6.25 1125 0
  endloop
endfacet
facet normal 0 -0 -1
  outer loop
    vertex 7.5 1125 0
    vertex 7.5 1000 0
    vertex 6.25 1000 0
  endloop
endfacet
facet normal 0 -0 -1
  outer loop
    vertex 6.25 1125 0
    vertex 6.25 1000 0
    vertex 5 1000 0
  endloop
endfacet
facet normal 0 -0 -1
  outer loop
    vertex 5 1500 0
    vertex 5 1375 0
    vertex 3.75 1375 0
  endloop
endfacet
facet normal -0 0 -1
  outer loop
    vertex 5 1375 0
    vertex 3.75 1250 0
    vertex 3.75 1375 0
  endloop
endfacet
facet normal 0 -0 -1
  outer loop
    vertex 5 1375 0
    vertex 5 1250 0
    vertex 3.75 1250 0
  endloop
endfacet
facet normal 0 -0 -1
  outer loop
    vertex 3.75 1375 0
    vertex 3.75 1250 0
    vertex 2.5 1250 0
  endloop
endfacet
facet normal -0 0 -1
  outer loop
    vertex 5 1250 0
    vertex 3.75 1125 0
    vertex 3.75 1250 0
  endloop
endfacet
facet normal 0 0 -1
  outer loop
    vertex 3.75 1125 0
    vertex 2.5 1125 0
    vertex 3.75 1250 0
  endloop
endfacet
facet normal -0 0 -1
  outer loop
    vertex 3.75 1125 0
    vertex 2.5 1000 0
    vertex 2.5 1125 0
  endloop
endfacet
facet normal -0 0 -1
  outer loop
    vertex 3.75 1250 0
    vertex 2.5 1125 0
    vertex 2.5 1250 0
  endloop
endfacet
facet normal 0 -0 -1
  outer loop
    vertex 5 1250 0
    vertex 5 1125 0
    vertex 3.75 1125 0
  endloop
endfacet
facet normal -0 0 -1
  outer loop
    vertex 5 1125 0
    vertex 3.75 1000 0
    vertex 3.75 1125 0
  endloop
endfacet
facet normal 0 -0 -1
  outer loop
    vertex 5 1125 0
    vertex 5 1000 0
    vertex 3.75 1000 0
  endloop
endfacet
facet normal 0 -0 -1
  outer loop
    vertex 3.75 1125 0
    vertex 3.75 1000 0
    vertex 2.5 1000 0
  endloop
endfacet
facet normal 0 -0 -1
  outer loop
    vertex 2.5 1250 0
    vertex 2.5 1125 0
    vertex 1.25 1125 0
  endloop
endfacet
facet normal -0 0 -1
  outer loop
    vertex 2.5 1125 0
    vertex 1.25 1000 0
    vertex 1.25 1125 0
  endloop
endfacet
facet normal 0 -0 -1
  outer loop
    vertex 2.5 1125 0
    vertex 2.5 1000 0
    vertex 1.25 1000 0
  endloop
endfacet
facet normal 0 -0 -1
  outer loop
    vertex 1.25 1125 0
    vertex 1.25 1000 0
    vertex 0 1000 0
  endloop
endfacet
facet normal -0 0 -1
  outer loop
    vertex 10 1000 0
    vertex 8.75 875 0
    vertex 8.75 1000 0
  endloop
endfacet
facet normal 0 0 -1
  outer loop
    vertex 8.75 875 0
    vertex 7.5 875 0
    vertex 8.75 1000 0
  endloop
endfacet
facet normal -0 0 -1
  outer loop
    vertex 8.75 875 0
    vertex 7.5 750 0
    vertex 7.5 875 0
  endloop
endfacet
facet normal -0 0 -1
  outer loop
    vertex 8.75 1000 0
    vertex 7.5 875 0
    vertex 7.5 1000 0
  endloop
endfacet
facet normal 0 0 -1
  outer loop
    vertex 7.5 750 0
    vertex 6.25 750 0
    vertex 7.5 875 0
  endloop
endfacet
facet normal 0 0 -1
  outer loop
    vertex 6.25 750 0
    vertex 6.25 875 0
    vertex 7.5 875 0
  endloop
endfacet
facet normal 0 0 -1
  outer loop
    vertex 6.25 750 0
    vertex 5 750 0
    vertex 6.25 875 0
  endloop
endfacet
facet normal 0 0 -1
  outer loop
    vertex 7.5 875 0
    vertex 6.25 875 0
    vertex 7.5 1000 0
  endloop
endfacet
facet normal -0 0 -1
  outer loop
    vertex 7.5 750 0
    vertex 6.25 625 0
    vertex 6.25 750 0
  endloop
endfacet
facet normal 0 0 -1
  outer loop
    vertex 6.25 625 0
    vertex 5 625 0
    vertex 6.25 750 0
  endloop
endfacet
facet normal -0 0 -1
  outer loop
    vertex 6.25 625 0
    vertex 5 500 0
    vertex 5 625 0
  endloop
endfacet
facet normal -0 0 -1
  outer loop
    vertex 6.25 750 0
    vertex 5 625 0
    vertex 5 750 0
  endloop
endfacet
facet normal -0 0 -1
  outer loop
    vertex 7.5 1000 0
    vertex 6.25 875 0
    vertex 6.25 1000 0
  endloop
endfacet
facet normal 0 0 -1
  outer loop
    vertex 6.25 875 0
    vertex 5 875 0
    vertex 6.25 1000 0
  endloop
endfacet
facet normal -0 0 -1
  outer loop
    vertex 6.25 875 0
    vertex 5 750 0
    vertex 5 875 0
  endloop
endfacet
facet normal -0 0 -1
  outer loop
    vertex 6.25 1000 0
    vertex 5 875 0
    vertex 5 1000 0
  endloop
endfacet
facet normal 0 0 -1
  outer loop
    vertex 5 500 0
    vertex 3.75 500 0
    vertex 5 625 0
  endloop
endfacet
facet normal 0 0 -1
  outer loop
    vertex 3.75 500 0
    vertex 3.75 625 0
    vertex 5 625 0
  endloop
endfacet
facet normal 0 0 -1
  outer loop
    vertex 3.75 500 0
    vertex 2.5 500 0
    vertex 3.75 625 0
  endloop
endfacet
facet normal 0 0 -1
  outer loop
    vertex 5 625 0
    vertex 3.75 625 0
    vertex 5 750 0
  endloop
endfacet
facet normal 0 0 -1
  outer loop
    vertex 2.5 500 0
    vertex 2.5 625 0
    vertex 3.75 625 0
  endloop
endfacet
facet normal 0 0 -1
  outer loop
    vertex 2.5 625 0
    vertex 3.75 750 0
    vertex 3.75 625 0
  endloop
endfacet
facet normal 0 0 -1
  outer loop
    vertex 2.5 625 0
    vertex 2.5 750 0
    vertex 3.75 750 0
  endloop
endfacet
facet normal 0 0 -1
  outer loop
    vertex 3.75 625 0
    vertex 3.75 750 0
    vertex 5 750 0
  endloop
endfacet
facet normal 0 0 -1
  outer loop
    vertex 2.5 500 0
    vertex 1.25 500 0
    vertex 2.5 625 0
  endloop
endfacet
facet normal 0 0 -1
  outer loop
    vertex 1.25 500 0
    vertex 1.25 625 0
    vertex 2.5 625 0
  endloop
endfacet
facet normal 0 0 -1
  outer loop
    vertex 1.25 500 0
    vertex 0 500 0
    vertex 1.25 625 0
  endloop
endfacet
facet normal 0 0 -1
  outer loop
    vertex 2.5 625 0
    vertex 1.25 625 0
    vertex 2.5 750 0
  endloop
endfacet
facet normal 0 0 -1
  outer loop
    vertex 5 750 0
    vertex 3.75 750 0
    vertex 5 875 0
  endloop
endfacet
facet normal 0 0 -1
  outer loop
    vertex 3.75 750 0
    vertex 3.75 875 0
    vertex 5 875 0
  endloop
endfacet
facet normal 0 0 -1
  outer loop
    vertex 3.75 750 0
    vertex 2.5 750 0
    vertex 3.75 875 0
  endloop
endfacet
facet normal 0 0 -1
  outer loop
    vertex 5 875 0
    vertex 3.75 875 0
    vertex 5 1000 0
  endloop
endfacet
facet normal -0 0 -1
  outer loop
    vertex 5 500 0
    vertex 3.75 375 0
    vertex 3.75 500 0
  endloop
endfacet
facet normal 0 0 -1
  outer loop
    vertex 3.75 375 0
    vertex 2.5 375 0
    vertex 3.75 500 0
  endloop
endfacet
facet normal -0 0 -1
  outer loop
    vertex 3.75 375 0
    vertex 2.5 250 0
    vertex 2.5 375 0
  endloop
endfacet
facet normal -0 0 -1
  outer loop
    vertex 3.75 500 0
    vertex 2.5 375 0
    vertex 2.5 500 0
  endloop
endfacet
facet normal 0 0 -1
  outer loop
    vertex 2.5 250 0
    vertex 1.25 250 0
    vertex 2.5 375 0
  endloop
endfacet
facet normal 0 0 -1
  outer loop
    vertex 1.25 250 0
    vertex 1.25 375 0
    vertex 2.5 375 0
  endloop
endfacet
facet normal 0 0 -1
  outer loop
    vertex 1.25 250 0
    vertex 0 250 0
    vertex 1.25 375 0
  endloop
endfacet
facet normal 0 0 -1
  outer loop
    vertex 2.5 375 0
    vertex 1.25 375 0
    vertex 2.5 500 0
  endloop
endfacet
facet normal -0 0 -1
  outer loop
    vertex 2.5 250 0
    vertex 1.25 125 0
    vertex 1.25 250 0
  endloop
endfacet
facet normal 0 0 -1
  outer loop
    vertex 1.25 125 0
    vertex 0 125 0
    vertex 1.25 250 0
  endloop
endfacet
facet normal -0 0 -1
  outer loop
    vertex 1.25 125 0
    vertex 0 0 0
    vertex 0 125 0
  endloop
endfacet
facet normal -0 0 -1
  outer loop
    vertex 1.25 250 0
    vertex 0 125 0
    vertex 0 250 0
  endloop
endfacet
facet normal -0 0 -1
  outer loop
    vertex 2.5 500 0
    vertex 1.25 375 0
    vertex 1.25 500 0
  endloop
endfacet
facet normal 0 0 -1
  outer loop
    vertex 1.25 375 0
    vertex 0 375 0
    vertex 1.25 500 0
  endloop
endfacet
facet normal -0 0 -1
  outer loop
    vertex 1.25 375 0
    vertex 0 250 0
    vertex 0 375 0
  endloop
endfacet
facet normal -0 0 -1
  outer loop
    vertex 1.25 500 0
    vertex 0 375 0
    vertex 0 500 0
  endloop
endfacet
facet normal -0 0 -1
  outer loop
    vertex 5 1000 0
    vertex 3.75 875 0
    vertex 3.75 1000 0
  endloop
endfacet
facet normal 0 0 -1
  outer loop
    vertex 3.75 875 0
    vertex 2.5 875 0
    vertex 3.75 1000 0
  endloop
endfacet
facet normal -0 0 -1
  outer loop
    vertex 3.75 875 0
    vertex 2.5 750 0
    vertex 2.5 875 0
  endloop
endfacet
facet normal -0 0 -1
  outer loop
    vertex 3.75 1000 0
    vertex 2.5 875 0
    vertex 2.5 1000 0
  endloop
endfacet
facet normal 0 0 -1
  outer loop
    vertex 2.5 750 0
    vertex 1.25 750 0
    vertex 2.5 875 0
  endloop
endfacet
facet normal 0 0 -1
  outer loop
    vertex 1.25 750 0
    vertex 1.25 875 0
    vertex 2.5 875 0
  endloop
endfacet
facet normal 0 0 -1
  outer loop
    vertex 1.25 750 0
    vertex 0 750 0
    vertex 1.25 875 0
  endloop
endfacet
facet normal 0 0 -1
  outer loop
    vertex 2.5 875 0
    vertex 1.25 875 0
    vertex 2.5 1000 0
  endloop
endfacet
facet normal -0 0 -1
  outer loop
    vertex 2.5 750 0
    vertex 1.25 625 0
    vertex 1.25 750 0
  endloop
endfacet
facet normal 0 0 -1
  outer loop
    vertex 1.25 625 0
    vertex 0 625 0
    vertex 1.25 750 0
  endloop
endfacet
facet normal -0 0 -1
  outer loop
    vertex 1.25 625 0
    vertex 0 500 0
    vertex 0 625 0
  endloop
endfacet
facet normal -0 0 -1
  outer loop
    vertex 1.25 750 0
    vertex 0 625 0
    vertex 0 750 0
  endloop
endfacet
facet normal -0 0 -1
  outer loop
    vertex 2.5 1000 0
    vertex 1.25 875 0
    vertex 1.25 1000 0
  endloop
endfacet
facet normal 0 0 -1
  outer loop
    vertex 1.25 875 0
    vertex 0 875 0
    vertex 1.25 1000 0
  endloop
endfacet
facet normal -0 0 -1
  outer loop
    vertex 1.25 875 0
    vertex 0 750 0
    vertex 0 875 0
  endloop
endfacet
facet normal -0 0 -1
  outer loop
    vertex 1.25 1000 0
    vertex 0 875 0
    vertex 0 1000 0
  endloop
endfacet
facet normal 0 -0 -1
  outer loop
    vertex 10 1000 0
    vertex 10 875 0
    vertex 8.75 875 0
  endloop
endfacet
facet normal -0 0 -1
  outer loop
    vertex 10 875 0
    vertex 8.75 750 0
    vertex 8.75 875 0
  endloop
endfacet
facet normal 0 -0 -1
  outer loop
    vertex 10 875 0
    vertex 10 750 0
    vertex 8.75 750 0
  endloop
endfacet
facet normal 0 -0 -1
  outer loop
    vertex 8.75 875 0
    vertex 8.75 750 0
    vertex 7.5 750 0
  endloop
endfacet
facet normal -0 0 -1
  outer loop
    vertex 10 750 0
    vertex 8.75 625 0
    vertex 8.75 750 0
  endloop
endfacet
facet normal 0 0 -1
  outer loop
    vertex 8.75 625 0
    vertex 7.5 625 0
    vertex 8.75 750 0
  endloop
endfacet
facet normal -0 0 -1
  outer loop
    vertex 8.75 625 0
    vertex 7.5 500 0
    vertex 7.5 625 0
  endloop
endfacet
facet normal -0 0 -1
  outer loop
    vertex 8.75 750 0
    vertex 7.5 625 0
    vertex 7.5 750 0
  endloop
endfacet
facet normal 0 -0 -1
  outer loop
    vertex 10 750 0
    vertex 10 625 0
    vertex 8.75 625 0
  endloop
endfacet
facet normal -0 0 -1
  outer loop
    vertex 10 625 0
    vertex 8.75 500 0
    vertex 8.75 625 0
  endloop
endfacet
facet normal 0 -0 -1
  outer loop
    vertex 10 625 0
    vertex 10 500 0
    vertex 8.75 500 0
  endloop
endfacet
facet normal 0 -0 -1
  outer loop
    vertex 8.75 625 0
    vertex 8.75 500 0
    vertex 7.5 500 0
  endloop
endfacet
facet normal 0 -0 -1
  outer loop
    vertex 7.5 750 0
    vertex 7.5 625 0
    vertex 6.25 625 0
  endloop
endfacet
facet normal -0 0 -1
  outer loop
    vertex 7.5 625 0
    vertex 6.25 500 0
    vertex 6.25 625 0
  endloop
endfacet
facet normal 0 -0 -1
  outer loop
    vertex 7.5 625 0
    vertex 7.5 500 0
    vertex 6.25 500 0
  endloop
endfacet
facet normal 0 -0 -1
  outer loop
    vertex 6.25 625 0
    vertex 6.25 500 0
    vertex 5 500 0
  endloop
endfacet
facet normal -0 0 -1
  outer loop
    vertex 10 500 0
    vertex 8.75 375 0
    vertex 8.75 500 0
  endloop
endfacet
facet normal 0 0 -1
  outer loop
    vertex 8.75 375 0
    vertex 7.5 375 0
    vertex 8.75 500 0
  endloop
endfacet
facet normal -0 0 -1
  outer loop
    vertex 8.75 375 0
    vertex 7.5 250 0
    vertex 7.5 375 0
  endloop
endfacet
facet normal -0 0 -1
  outer loop
    vertex 8.75 500 0
    vertex 7.5 375 0
    vertex 7.5 500 0
  endloop
endfacet
facet normal 0 0 -1
  outer loop
    vertex 7.5 250 0
    vertex 6.25 250 0
    vertex 7.5 375 0
  endloop
endfacet
facet normal 0 0 -1
  outer loop
    vertex 6.25 250 0
    vertex 6.25 375 0
    vertex 7.5 375 0
  endloop
endfacet
facet normal 0 0 -1
  outer loop
    vertex 6.25 250 0
    vertex 5 250 0
    vertex 6.25 375 0
  endloop
endfacet
facet normal 0 0 -1
  outer loop
    vertex 7.5 375 0
    vertex 6.25 375 0
    vertex 7.5 500 0
  endloop
endfacet
facet normal -0 0 -1
  outer loop
    vertex 7.5 250 0
    vertex 6.25 125 0
    vertex 6.25 250 0
  endloop
endfacet
facet normal 0 0 -1
  outer loop
    vertex 6.25 125 0
    vertex 5 125 0
    vertex 6.25 250 0
  endloop
endfacet
facet normal -0 0 -1
  outer loop
    vertex 6.25 125 0
    vertex 5 0 0
    vertex 5 125 0
  endloop
endfacet
facet normal -0 0 -1
  outer loop
    vertex 6.25 250 0
    vertex 5 125 0
    vertex 5 250 0
  endloop
endfacet
facet normal -0 0 -1
  outer loop
    vertex 7.5 500 0
    vertex 6.25 375 0
    vertex 6.25 500 0
  endloop
endfacet
facet normal 0 0 -1
  outer loop
    vertex 6.25 375 0
    vertex 5 375 0
    vertex 6.25 500 0
  endloop
endfacet
facet normal -0 0 -1
  outer loop
    vertex 6.25 375 0
    vertex 5 250 0
    vertex 5 375 0
  endloop
endfacet
facet normal -0 0 -1
  outer loop
    vertex 6.25 500 0
    vertex 5 375 0
    vertex 5 500 0
  endloop
endfacet
facet normal 0 -0 -1
  outer loop
    vertex 10 500 0
    vertex 10 375 0
    vertex 8.75 375 0
  endloop
endfacet
facet normal -0 0 -1
  outer loop
    vertex 10 375 0
    vertex 8.75 250 0
    vertex 8.75 375 0
  endloop
endfacet
facet normal 0 -0 -1
  outer loop
    vertex 10 375 0
    vertex 10 250 0
    vertex 8.75 250 0
  endloop
endfacet
facet normal 0 -0 -1
  outer loop
    vertex 8.75 375 0
    vertex 8.75 250 0
    vertex 7.5 250 0
  endloop
endfacet
facet normal -0 0 -1
  outer loop
    vertex 10 250 0
    vertex 8.75 125 0
    vertex 8.75 250 0
  endloop
endfacet
facet normal 0 0 -1
  outer loop
    vertex 8.75 125 0
    vertex 7.5 125 0
    vertex 8.75 250 0
  endloop
endfacet
facet normal -0 0 -1
  outer loop
    vertex 8.75 125 0
    vertex 7.5 0 0
    vertex 7.5 125 0
  endloop
endfacet
facet normal -0 0 -1
  outer loop
    vertex 8.75 250 0
    vertex 7.5 125 0
    vertex 7.5 250 0
  endloop
endfacet
facet normal 0 -0 -1
  outer loop
    vertex 10 250 0
    vertex 10 125 0
    vertex 8.75 125 0
  endloop
endfacet
facet normal -0 0 -1
  outer loop
    vertex 10 125 0
    vertex 8.75 0 0
    vertex 8.75 125 0
  endloop
endfacet
facet normal 0 -0 -1
  outer loop
    vertex 10 125 0
    vertex 10 0 0
    vertex 8.75 0 0
  endloop
endfacet
facet normal 0 -0 -1
  outer loop
    vertex 8.75 125 0
    vertex 8.75 0 0
    vertex 7.5 0 0
  endloop
endfacet
facet normal 0 -0 -1
  outer loop
    vertex 7.5 250 0
    vertex 7.5 125 0
    vertex 6.25 125 0
  endloop
endfacet
facet normal -0 0 -1
  outer loop
    vertex 7.5 125 0
    vertex 6.25 0 0
    vertex 6.25 125 0
  endloop
endfacet
facet normal 0 -0 -1
  outer loop
    vertex 7.5 125 0
    vertex 7.5 0 0
    vertex 6.25 0 0
  endloop
endfacet
facet normal 0 -0 -1
  outer loop
    vertex 6.25 125 0
    vertex 6.25 0 0
    vertex 5 0 0
  endloop
endfacet
facet normal 0 -0 -1
  outer loop
    vertex 5 500 0
    vertex 5 375 0
    vertex 3.75 375 0
  endloop
endfacet
facet normal -0 0 -1
  outer loop
    vertex 5 375 0
    vertex 3.75 250 0
    vertex 3.75 375 0
  endloop
endfacet
facet normal 0 -0 -1
  outer loop
    vertex 5 375 0
    vertex 5 250 0
    vertex 3.75 250 0
  endloop
endfacet
facet normal 0 -0 -1
  outer loop
    vertex 3.75 375 0
    vertex 3.75 250 0
    vertex 2.5 250 0
  endloop
endfacet
facet normal -0 0 -1
  outer loop
    vertex 5 250 0
    vertex 3.75 125 0
    vertex 3.75 250 0
  endloop
endfacet
facet normal 0 0 -1
  outer loop
    vertex 3.75 125 0
    vertex 2.5 125 0
    vertex 3.75 250 0
  endloop
endfacet
facet normal -0 0 -1
  outer loop
    vertex 3.75 125 0
    vertex 2.5 0 0
    vertex 2.5 125 0
  endloop
endfacet
facet normal -0 0 -1
  outer loop
    vertex 3.75 250 0
    vertex 2.5 125 0
    vertex 2.5 250 0
  endloop
endfacet
facet normal 0 -0 -1
  outer loop
    vertex 5 250 0
    vertex 5 125 0
    vertex 3.75 125 0
  endloop
endfacet
facet normal -0 0 -1
  outer loop
    vertex 5 125 0
    vertex 3.75 0 0
    vertex 3.75 125 0
  endloop
endfacet
facet normal 0 -0 -1
  outer loop
    vertex 5 125 0
    vertex 5 0 0
    vertex 3.75 0 0
  endloop
endfacet
facet normal 0 -0 -1
  outer loop
    vertex 3.75 125 0
    vertex 3.75 0 0
    vertex 2.5 0 0
  endloop
endfacet
facet normal 0 -0 -1
  outer loop
    vertex 2.5 250 0
    vertex 2.5 125 0
    vertex 1.25 125 0
  endloop
endfacet
facet normal -0 0 -1
  outer loop
    vertex 2.5 125 0
    vertex 1.25 0 0
    vertex 1.25 125 0
  endloop
endfacet
facet normal 0 -0 -1
  outer loop
    vertex 2.5 125 0
    vertex 2.5 0 0
    vertex 1.25 0 0
  endloop
endfacet
facet normal 0 -0 -1
  outer loop
    vertex 1.25 125 0
    vertex 1.25 0 0
    vertex 0 0 0
  endloop
endfacet
facet normal 0 -0 -1
  outer loop
    vertex 0 1000 0
    vertex 0 875 0
    vertex -1.25 875 0
  endloop
endfacet
facet normal -0 0 -1
  outer loop
    vertex 0 875 0
    vertex -1.25 750 0
    vertex -1.25 875 0
  endloop
endfacet
facet normal 0 -0 -1
  outer loop
    vertex 0 875 0
    vertex 0 750 0
    vertex -1.25 750 0
  endloop
endfacet
facet normal 0 -0 -1
  outer loop
    vertex -1.25 875 0
    vertex -1.25 750 0
    vertex -2.5 750 0
  endloop
endfacet
facet normal -0 0 -1
  outer loop
    vertex 0 750 0
    vertex -1.25 625 0
    vertex -1.25 750 0
  endloop
endfacet
facet normal 0 0 -1
  outer loop
    vertex -1.25 625 0
    vertex -2.5 625 0
    vertex -1.25 750 0
  endloop
endfacet
facet normal -0 0 -1
  outer loop
    vertex -1.25 625 0
    vertex -2.5 500 0
    vertex -2.5 625 0
  endloop
endfacet
facet normal -0 0 -1
  outer loop
    vertex -1.25 750 0
    vertex -2.5 625 0
    vertex -2.5 750 0
  endloop
endfacet
facet normal 0 -0 -1
  outer loop
    vertex 0 750 0
    vertex 0 625 0
    vertex -1.25 625 0
  endloop
endfacet
facet normal -0 0 -1
  outer loop
    vertex 0 625 0
    vertex -1.25 500 0
    vertex -1.25 625 0
  endloop
endfacet
facet normal 0 -0 -1
  outer loop
    vertex 0 625 0
    vertex 0 500 0
    vertex -1.25 500 0
  endloop
endfacet
facet normal 0 -0 -1
  outer loop
    vertex -1.25 625 0
    vertex -1.25 500 0
    vertex -2.5 500 0
  endloop
endfacet
facet normal 0 -0 -1
  outer loop
    vertex -2.5 750 0
    vertex -2.5 625 0
    vertex -3.75 625 0
  endloop
endfacet
facet normal -0 0 -1
  outer loop
    vertex -2.5 625 0
    vertex -3.75 500 0
    vertex -3.75 625 0
  endloop
endfacet
facet normal 0 -0 -1
  outer loop
    vertex -2.5 625 0
    vertex -2.5 500 0
    vertex -3.75 500 0
  endloop
endfacet
facet normal 0 -0 -1
  outer loop
    vertex -3.75 625 0
    vertex -3.75 500 0
    vertex -5 500 0
  endloop
endfacet
facet normal -0 0 -1
  outer loop
    vertex 0 500 0
    vertex -1.25 375 0
    vertex -1.25 500 0
  endloop
endfacet
facet normal 0 0 -1
  outer loop
    vertex -1.25 375 0
    vertex -2.5 375 0
    vertex -1.25 500 0
  endloop
endfacet
facet normal -0 0 -1
  outer loop
    vertex -1.25 375 0
    vertex -2.5 250 0
    vertex -2.5 375 0
  endloop
endfacet
facet normal -0 0 -1
  outer loop
    vertex -1.25 500 0
    vertex -2.5 375 0
    vertex -2.5 500 0
  endloop
endfacet
facet normal 0 0 -1
  outer loop
    vertex -2.5 250 0
    vertex -3.75 250 0
    vertex -2.5 375 0
  endloop
endfacet
facet normal 0 0 -1
  outer loop
    vertex -3.75 250 0
    vertex -3.75 375 0
    vertex -2.5 375 0
  endloop
endfacet
facet normal 0 0 -1
  outer loop
    vertex -3.75 250 0
    vertex -5 250 0
    vertex -3.75 375 0
  endloop
endfacet
facet normal 0 0 -1
  outer loop
    vertex -2.5 375 0
    vertex -3.75 375 0
    vertex -2.5 500 0
  endloop
endfacet
facet normal -0 0 -1
  outer loop
    vertex -2.5 250 0
    vertex -3.75 125 0
    vertex -3.75 250 0
  endloop
endfacet
facet normal 0 0 -1
  outer loop
    vertex -3.75 125 0
    vertex -5 125 0
    vertex -3.75 250 0
  endloop
endfacet
facet normal -0 0 -1
  outer loop
    vertex -3.75 125 0
    vertex -5 0 0
    vertex -5 125 0
  endloop
endfacet
facet normal -0 0 -1
  outer loop
    vertex -3.75 250 0
    vertex -5 125 0
    vertex -5 250 0
  endloop
endfacet
facet normal -0 0 -1
  outer loop
    vertex -2.5 500 0
    vertex -3.75 375 0
    vertex -3.75 500 0
  endloop
endfacet
facet normal 0 0 -1
  outer loop
    vertex -3.75 375 0
    vertex -5 375 0
    vertex -3.75 500 0
  endloop
endfacet
facet normal -0 0 -1
  outer loop
    vertex -3.75 375 0
    vertex -5 250 0
    vertex -5 375 0
  endloop
endfacet
facet normal -0 0 -1
  outer loop
    vertex -3.75 500 0
    vertex -5 375 0
    vertex -5 500 0
  endloop
endfacet
facet normal 0 -0 -1
  outer loop
    vertex 0 500 0
    vertex 0 375 0
    vertex -1.25 375 0
  endloop
endfacet
facet normal -0 0 -1
  outer loop
    vertex 0 375 0
    vertex -1.25 250 0
    vertex -1.25 375 0
  endloop
endfacet
facet normal 0 -0 -1
  outer loop
    vertex 0 375 0
    vertex 0 250 0
    vertex -1.25 250 0
  endloop
endfacet
facet normal 0 -0 -1
  outer loop
    vertex -1.25 375 0
    vertex -1.25 250 0
    vertex -2.5 250 0
  endloop
endfacet
facet normal -0 0 -1
  outer loop
    vertex 0 250 0
    vertex -1.25 125 0
    vertex -1.25 250 0
  endloop
endfacet
facet normal 0 0 -1
  outer loop
    vertex -1.25 125 0
    vertex -2.5 125 0
    vertex -1.25 250 0
  endloop
endfacet
facet normal -0 0 -1
  outer loop
    vertex -1.25 125 0
    vertex -2.5 0 0
    vertex -2.5 125 0
  endloop
endfacet
facet normal -0 0 -1
  outer loop
    vertex -1.25 250 0
    vertex -2.5 125 0
    vertex -2.5 250 0
  endloop
endfacet
facet normal 0 -0 -1
  outer loop
    vertex 0 250 0
    vertex 0 125 0
    vertex -1.25 125 0
  endloop
endfacet
facet normal -0 0 -1
  outer loop
    vertex 0 125 0
    vertex -1.25 0 0
    vertex -1.25 125 0
  endloop
endfacet
facet normal 0 -0 -1
  outer loop
    vertex 0 125 0
    vertex 0 0 0
    vertex -1.25 0 0
  endloop
endfacet
facet normal 0 -0 -1
  outer loop
    vertex -1.25 125 0
    vertex -1.25 0 0
    vertex -2.5 0 0
  endloop
endfacet
facet normal 0 -0 -1
  outer loop
    vertex -2.5 250 0
    vertex -2.5 125 0
    vertex -3.75 125 0
  endloop
endfacet
facet normal -0 0 -1
  outer loop
    vertex -2.5 125 0
    vertex -3.75 0 0
    vertex -3.75 125 0
  endloop
endfacet
facet normal 0 -0 -1
  outer loop
    vertex -2.5 125 0
    vertex -2.5 0 0
    vertex -3.75 0 0
  endloop
endfacet
facet normal 0 -0 -1
  outer loop
    vertex -3.75 125 0
    vertex -3.75 0 0
    vertex -5 0 0
  endloop
endfacet
facet normal 0 -0 -1
  outer loop
    vertex -5 500 0
    vertex -5 375 0
    vertex -6.25 375 0
  endloop
endfacet
facet normal -0 0 -1
  outer loop
    vertex -5 375 0
    vertex -6.25 250 0
    vertex -6.25 375 0
  endloop
endfacet
facet normal 0 -0 -1
  outer loop
    vertex -5 375 0
    vertex -5 250 0
    vertex -6.25 250 0
  endloop
endfacet
facet normal 0 -0 -1
  outer loop
    vertex -6.25 375 0
    vertex -6.25 250 0
    vertex -7.5 250 0
  endloop
endfacet
facet normal -0 0 -1
  outer loop
    vertex -5 250 0
    vertex -6.25 125 0
    vertex -6.25 250 0
  endloop
endfacet
facet normal 0 0 -1
  outer loop
    vertex -6.25 125 0
    vertex -7.5 125 0
    vertex -6.25 250 0
  endloop
endfacet
facet normal -0 0 -1
  outer loop
    vertex -6.25 125 0
    vertex -7.5 0 0
    vertex -7.5 125 0
  endloop
endfacet
facet normal -0 0 -1
  outer loop
    vertex -6.25 250 0
    vertex -7.5 125 0
    vertex -7.5 250 0
  endloop
endfacet
facet normal 0 -0 -1
  outer loop
    vertex -5 250 0
    vertex -5 125 0
    vertex -6.25 125 0
  endloop
endfacet
facet normal -0 0 -1
  outer loop
    vertex -5 125 0
    vertex -6.25 0 0
    vertex -6.25 125 0
  endloop
endfacet
facet normal 0 -0 -1
  outer loop
    vertex -5 125 0
    vertex -5 0 0
    vertex -6.25 0 0
  endloop
endfacet
facet normal 0 -0 -1
  outer loop
    vertex -6.25 125 0
    vertex -6.25 0 0
    vertex -7.5 0 0
  endloop
endfacet
facet normal 0 -0 -1
  outer loop
    vertex -7.5 250 0
    vertex -7.5 125 0
    vertex -8.75 125 0
  endloop
endfacet
facet normal -0 0 -1
  outer loop
    vertex -7.5 125 0
    vertex -8.75 0 0
    vertex -8.75 125 0
  endloop
endfacet
facet normal 0 -0 -1
  outer loop
    vertex -7.5 125 0
    vertex -7.5 0 0
    vertex -8.75 0 0
  endloop
endfacet
facet normal 0 -0 -1
  outer loop
    vertex -8.75 125 0
    vertex -8.75 0 0
    vertex -10 0 0
  endloop
endfacet
facet normal 0 0 -1
  outer loop
    vertex -10 0 0
    vertex -10 125 0
    vertex -8.75 125 0
  endloop
endfacet
facet normal 0 0 -1
  outer loop
    vertex -10 125 0
    vertex -8.75 250 0
    vertex -8.75 125 0
  endloop
endfacet
facet normal 0 0 -1
  outer loop
    vertex -10 125 0
    vertex -10 250 0
    vertex -8.75 250 0
  endloop
endfacet
facet normal 0 0 -1
  outer loop
    vertex -8.75 125 0
    vertex -8.75 250 0
    vertex -7.5 250 0
  endloop
endfacet
facet normal 0 0 -1
  outer loop
    vertex -10 250 0
    vertex -8.75 375 0
    vertex -8.75 250 0
  endloop
endfacet
facet normal 0 0 -1
  outer loop
    vertex -8.75 375 0
    vertex -7.5 375 0
    vertex -8.75 250 0
  endloop
endfacet
facet normal 0 0 -1
  outer loop
    vertex -8.75 375 0
    vertex -7.5 500 0
    vertex -7.5 375 0
  endloop
endfacet
facet normal 0 0 -1
  outer loop
    vertex -8.75 250 0
    vertex -7.5 375 0
    vertex -7.5 250 0
  endloop
endfacet
facet normal 0 0 -1
  outer loop
    vertex -10 250 0
    vertex -10 375 0
    vertex -8.75 375 0
  endloop
endfacet
facet normal 0 0 -1
  outer loop
    vertex -10 375 0
    vertex -8.75 500 0
    vertex -8.75 375 0
  endloop
endfacet
facet normal 0 0 -1
  outer loop
    vertex -10 375 0
    vertex -10 500 0
    vertex -8.75 500 0
  endloop
endfacet
facet normal 0 0 -1
  outer loop
    vertex -8.75 375 0
    vertex -8.75 500 0
    vertex -7.5 500 0
  endloop
endfacet
facet normal 0 0 -1
  outer loop
    vertex -7.5 250 0
    vertex -7.5 375 0
    vertex -6.25 375 0
  endloop
endfacet
facet normal 0 0 -1
  outer loop
    vertex -7.5 375 0
    vertex -6.25 500 0
    vertex -6.25 375 0
  endloop
endfacet
facet normal 0 0 -1
  outer loop
    vertex -7.5 375 0
    vertex -7.5 500 0
    vertex -6.25 500 0
  endloop
endfacet
facet normal 0 0 -1
  outer loop
    vertex -6.25 375 0
    vertex -6.25 500 0
    vertex -5 500 0
  endloop
endfacet
facet normal 0 0 -1
  outer loop
    vertex -10 500 0
    vertex -8.75 625 0
    vertex -8.75 500 0
  endloop
endfacet
facet normal 0 0 -1
  outer loop
    vertex -8.75 625 0
    vertex -7.5 625 0
    vertex -8.75 500 0
  endloop
endfacet
facet normal 0 0 -1
  outer loop
    vertex -8.75 625 0
    vertex -7.5 750 0
    vertex -7.5 625 0
  endloop
endfacet
facet normal 0 0 -1
  outer loop
    vertex -8.75 500 0
    vertex -7.5 625 0
    vertex -7.5 500 0
  endloop
endfacet
facet normal 0 0 -1
  outer loop
    vertex -7.5 750 0
    vertex -6.25 750 0
    vertex -7.5 625 0
  endloop
endfacet
facet normal 0 -0 -1
  outer loop
    vertex -6.25 750 0
    vertex -6.25 625 0
    vertex -7.5 625 0
  endloop
endfacet
facet normal 0 0 -1
  outer loop
    vertex -6.25 750 0
    vertex -5 750 0
    vertex -6.25 625 0
  endloop
endfacet
facet normal 0 0 -1
  outer loop
    vertex -7.5 625 0
    vertex -6.25 625 0
    vertex -7.5 500 0
  endloop
endfacet
facet normal 0 0 -1
  outer loop
    vertex -7.5 750 0
    vertex -6.25 875 0
    vertex -6.25 750 0
  endloop
endfacet
facet normal 0 0 -1
  outer loop
    vertex -6.25 875 0
    vertex -5 875 0
    vertex -6.25 750 0
  endloop
endfacet
facet normal 0 0 -1
  outer loop
    vertex -6.25 875 0
    vertex -5 1000 0
    vertex -5 875 0
  endloop
endfacet
facet normal 0 0 -1
  outer loop
    vertex -6.25 750 0
    vertex -5 875 0
    vertex -5 750 0
  endloop
endfacet
facet normal 0 0 -1
  outer loop
    vertex -7.5 500 0
    vertex -6.25 625 0
    vertex -6.25 500 0
  endloop
endfacet
facet normal 0 0 -1
  outer loop
    vertex -6.25 625 0
    vertex -5 625 0
    vertex -6.25 500 0
  endloop
endfacet
facet normal 0 0 -1
  outer loop
    vertex -6.25 625 0
    vertex -5 750 0
    vertex -5 625 0
  endloop
endfacet
facet normal 0 0 -1
  outer loop
    vertex -6.25 500 0
    vertex -5 625 0
    vertex -5 500 0
  endloop
endfacet
facet normal 0 0 -1
  outer loop
    vertex -10 500 0
    vertex -10 625 0
    vertex -8.75 625 0
  endloop
endfacet
facet normal 0 0 -1
  outer loop
    vertex -10 625 0
    vertex -8.75 750 0
    vertex -8.75 625 0
  endloop
endfacet
facet normal 0 0 -1
  outer loop
    vertex -10 625 0
    vertex -10 750 0
    vertex -8.75 750 0
  endloop
endfacet
facet normal 0 0 -1
  outer loop
    vertex -8.75 625 0
    vertex -8.75 750 0
    vertex -7.5 750 0
  endloop
endfacet
facet normal 0 0 -1
  outer loop
    vertex -10 750 0
    vertex -8.75 875 0
    vertex -8.75 750 0
  endloop
endfacet
facet normal 0 0 -1
  outer loop
    vertex -8.75 875 0
    vertex -7.5 875 0
    vertex -8.75 750 0
  endloop
endfacet
facet normal 0 0 -1
  outer loop
    vertex -8.75 875 0
    vertex -7.5 1000 0
    vertex -7.5 875 0
  endloop
endfacet
facet normal 0 0 -1
  outer loop
    vertex -8.75 750 0
    vertex -7.5 875 0
    vertex -7.5 750 0
  endloop
endfacet
facet normal 0 0 -1
  outer loop
    vertex -10 750 0
    vertex -10 875 0
    vertex -8.75 875 0
  endloop
endfacet
facet normal 0 0 -1
  outer loop
    vertex -10 875 0
    vertex -8.75 1000 0
    vertex -8.75 875 0
  endloop
endfacet
facet normal 0 0 -1
  outer loop
    vertex -10 875 0
    vertex -10 1000 0
    vertex -8.75 1000 0
  endloop
endfacet
facet normal 0 0 -1
  outer loop
    vertex -8.75 875 0
    vertex -8.75 1000 0
    vertex -7.5 1000 0
  endloop
endfacet
facet normal 0 0 -1
  outer loop
    vertex -7.5 750 0
    vertex -7.5 875 0
    vertex -6.25 875 0
  endloop
endfacet
facet normal 0 0 -1
  outer loop
    vertex -7.5 875 0
    vertex -6.25 1000 0
    vertex -6.25 875 0
  endloop
endfacet
facet normal 0 0 -1
  outer loop
    vertex -7.5 875 0
    vertex -7.5 1000 0
    vertex -6.25 1000 0
  endloop
endfacet
facet normal 0 0 -1
  outer loop
    vertex -6.25 875 0
    vertex -6.25 1000 0
    vertex -5 1000 0
  endloop
endfacet
facet normal 0 0 -1
  outer loop
    vertex -5 500 0
    vertex -5 625 0
    vertex -3.75 625 0
  endloop
endfacet
facet normal 0 0 -1
  outer loop
    vertex -5 625 0
    vertex -3.75 750 0
    vertex -3.75 625 0
  endloop
endfacet
facet normal 0 0 -1
  outer loop
    vertex -5 625 0
    vertex -5 750 0
    vertex -3.75 750 0
  endloop
endfacet
facet normal 0 0 -1
  outer loop
    vertex -3.75 625 0
    vertex -3.75 750 0
    vertex -2.5 750 0
  endloop
endfacet
facet normal 0 0 -1
  outer loop
    vertex -5 750 0
    vertex -3.75 875 0
    vertex -3.75 750 0
  endloop
endfacet
facet normal 0 0 -1
  outer loop
    vertex -3.75 875 0
    vertex -2.5 875 0
    vertex -3.75 750 0
  endloop
endfacet
facet normal 0 0 -1
  outer loop
    vertex -3.75 875 0
    vertex -2.5 1000 0
    vertex -2.5 875 0
  endloop
endfacet
facet normal 0 0 -1
  outer loop
    vertex -3.75 750 0
    vertex -2.5 875 0
    vertex -2.5 750 0
  endloop
endfacet
facet normal 0 0 -1
  outer loop
    vertex -5 750 0
    vertex -5 875 0
    vertex -3.75 875 0
  endloop
endfacet
facet normal 0 0 -1
  outer loop
    vertex -5 875 0
    vertex -3.75 1000 0
    vertex -3.75 875 0
  endloop
endfacet
facet normal 0 0 -1
  outer loop
    vertex -5 875 0
    vertex -5 1000 0
    vertex -3.75 1000 0
  endloop
endfacet
facet normal 0 0 -1
  outer loop
    vertex -3.75 875 0
    vertex -3.75 1000 0
    vertex -2.5 1000 0
  endloop
endfacet
facet normal 0 0 -1
  outer loop
    vertex -2.5 750 0
    vertex -2.5 875 0
    vertex -1.25 875 0
  endloop
endfacet
facet normal 0 0 -1
  outer loop
    vertex -2.5 875 0
    vertex -1.25 1000 0
    vertex -1.25 875 0
  endloop
endfacet
facet normal 0 0 -1
  outer loop
    vertex -2.5 875 0
    vertex -2.5 1000 0
    vertex -1.25 1000 0
  endloop
endfacet
facet normal 0 0 -1
  outer loop
    vertex -1.25 875 0
    vertex -1.25 1000 0
    vertex 0 1000 0
  endloop
endfacet
facet normal 0 0 -1
  outer loop
    vertex -10 1000 0
    vertex -8.75 1125 0
    vertex -8.75 1000 0
  endloop
endfacet
facet normal 0 0 -1
  outer loop
    vertex -8.75 1125 0
    vertex -7.5 1125 0
    vertex -8.75 1000 0
  endloop
endfacet
facet normal 0 0 -1
  outer loop
    vertex -8.75 1125 0
    vertex -7.5 1250 0
    vertex -7.5 1125 0
  endloop
endfacet
facet normal 0 0 -1
  outer loop
    vertex -8.75 1000 0
    vertex -7.5 1125 0
    vertex -7.5 1000 0
  endloop
endfacet
facet normal 0 0 -1
  outer loop
    vertex -7.5 1250 0
    vertex -6.25 1250 0
    vertex -7.5 1125 0
  endloop
endfacet
facet normal 0 -0 -1
  outer loop
    vertex -6.25 1250 0
    vertex -6.25 1125 0
    vertex -7.5 1125 0
  endloop
endfacet
facet normal 0 0 -1
  outer loop
    vertex -6.25 1250 0
    vertex -5 1250 0
    vertex -6.25 1125 0
  endloop
endfacet
facet normal 0 0 -1
  outer loop
    vertex -7.5 1125 0
    vertex -6.25 1125 0
    vertex -7.5 1000 0
  endloop
endfacet
facet normal 0 0 -1
  outer loop
    vertex -7.5 1250 0
    vertex -6.25 1375 0
    vertex -6.25 1250 0
  endloop
endfacet
facet normal 0 0 -1
  outer loop
    vertex -6.25 1375 0
    vertex -5 1375 0
    vertex -6.25 1250 0
  endloop
endfacet
facet normal 0 0 -1
  outer loop
    vertex -6.25 1375 0
    vertex -5 1500 0
    vertex -5 1375 0
  endloop
endfacet
facet normal 0 0 -1
  outer loop
    vertex -6.25 1250 0
    vertex -5 1375 0
    vertex -5 1250 0
  endloop
endfacet
facet normal 0 0 -1
  outer loop
    vertex -7.5 1000 0
    vertex -6.25 1125 0
    vertex -6.25 1000 0
  endloop
endfacet
facet normal 0 0 -1
  outer loop
    vertex -6.25 1125 0
    vertex -5 1125 0
    vertex -6.25 1000 0
  endloop
endfacet
facet normal 0 0 -1
  outer loop
    vertex -6.25 1125 0
    vertex -5 1250 0
    vertex -5 1125 0
  endloop
endfacet
facet normal 0 0 -1
  outer loop
    vertex -6.25 1000 0
    vertex -5 1125 0
    vertex -5 1000 0
  endloop
endfacet
facet normal 0 0 -1
  outer loop
    vertex -5 1500 0
    vertex -3.75 1500 0
    vertex -5 1375 0
  endloop
endfacet
facet normal 0 -0 -1
  outer loop
    vertex -3.75 1500 0
    vertex -3.75 1375 0
    vertex -5 1375 0
  endloop
endfacet
facet normal 0 0 -1
  outer loop
    vertex -3.75 1500 0
    vertex -2.5 1500 0
    vertex -3.75 1375 0
  endloop
endfacet
facet normal 0 0 -1
  outer loop
    vertex -5 1375 0
    vertex -3.75 1375 0
    vertex -5 1250 0
  endloop
endfacet
facet normal 0 -0 -1
  outer loop
    vertex -2.5 1500 0
    vertex -2.5 1375 0
    vertex -3.75 1375 0
  endloop
endfacet
facet normal -0 0 -1
  outer loop
    vertex -2.5 1375 0
    vertex -3.75 1250 0
    vertex -3.75 1375 0
  endloop
endfacet
facet normal 0 -0 -1
  outer loop
    vertex -2.5 1375 0
    vertex -2.5 1250 0
    vertex -3.75 1250 0
  endloop
endfacet
facet normal 0 -0 -1
  outer loop
    vertex -3.75 1375 0
    vertex -3.75 1250 0
    vertex -5 1250 0
  endloop
endfacet
facet normal 0 0 -1
  outer loop
    vertex -2.5 1500 0
    vertex -1.25 1500 0
    vertex -2.5 1375 0
  endloop
endfacet
facet normal 0 -0 -1
  outer loop
    vertex -1.25 1500 0
    vertex -1.25 1375 0
    vertex -2.5 1375 0
  endloop
endfacet
facet normal 0 0 -1
  outer loop
    vertex -1.25 1500 0
    vertex 0 1500 0
    vertex -1.25 1375 0
  endloop
endfacet
facet normal 0 0 -1
  outer loop
    vertex -2.5 1375 0
    vertex -1.25 1375 0
    vertex -2.5 1250 0
  endloop
endfacet
facet normal 0 0 -1
  outer loop
    vertex -5 1250 0
    vertex -3.75 1250 0
    vertex -5 1125 0
  endloop
endfacet
facet normal 0 -0 -1
  outer loop
    vertex -3.75 1250 0
    vertex -3.75 1125 0
    vertex -5 1125 0
  endloop
endfacet
facet normal 0 0 -1
  outer loop
    vertex -3.75 1250 0
    vertex -2.5 1250 0
    vertex -3.75 1125 0
  endloop
endfacet
facet normal 0 0 -1
  outer loop
    vertex -5 1125 0
    vertex -3.75 1125 0
    vertex -5 1000 0
  endloop
endfacet
facet normal 0 0 -1
  outer loop
    vertex -5 1500 0
    vertex -3.75 1625 0
    vertex -3.75 1500 0
  endloop
endfacet
facet normal 0 0 -1
  outer loop
    vertex -3.75 1625 0
    vertex -2.5 1625 0
    vertex -3.75 1500 0
  endloop
endfacet
facet normal 0 0 -1
  outer loop
    vertex -3.75 1625 0
    vertex -2.5 1750 0
    vertex -2.5 1625 0
  endloop
endfacet
facet normal 0 0 -1
  outer loop
    vertex -3.75 1500 0
    vertex -2.5 1625 0
    vertex -2.5 1500 0
  endloop
endfacet
facet normal 0 0 -1
  outer loop
    vertex -2.5 1750 0
    vertex -1.25 1750 0
    vertex -2.5 1625 0
  endloop
endfacet
facet normal 0 -0 -1
  outer loop
    vertex -1.25 1750 0
    vertex -1.25 1625 0
    vertex -2.5 1625 0
  endloop
endfacet
facet normal 0 0 -1
  outer loop
    vertex -1.25 1750 0
    vertex 0 1750 0
    vertex -1.25 1625 0
  endloop
endfacet
facet normal 0 0 -1
  outer loop
    vertex -2.5 1625 0
    vertex -1.25 1625 0
    vertex -2.5 1500 0
  endloop
endfacet
facet normal 0 0 -1
  outer loop
    vertex -2.5 1750 0
    vertex -1.25 1875 0
    vertex -1.25 1750 0
  endloop
endfacet
facet normal 0 0 -1
  outer loop
    vertex -1.25 1875 0
    vertex 0 1875 0
    vertex -1.25 1750 0
  endloop
endfacet
facet normal 0 0 -1
  outer loop
    vertex -1.25 1875 0
    vertex 0 2000 0
    vertex 0 1875 0
  endloop
endfacet
facet normal 0 0 -1
  outer loop
    vertex -1.25 1750 0
    vertex 0 1875 0
    vertex 0 1750 0
  endloop
endfacet
facet normal 0 0 -1
  outer loop
    vertex -2.5 1500 0
    vertex -1.25 1625 0
    vertex -1.25 1500 0
  endloop
endfacet
facet normal 0 0 -1
  outer loop
    vertex -1.25 1625 0
    vertex 0 1625 0
    vertex -1.25 1500 0
  endloop
endfacet
facet normal 0 0 -1
  outer loop
    vertex -1.25 1625 0
    vertex 0 1750 0
    vertex 0 1625 0
  endloop
endfacet
facet normal 0 0 -1
  outer loop
    vertex -1.25 1500 0
    vertex 0 1625 0
    vertex 0 1500 0
  endloop
endfacet
facet normal 0 0 -1
  outer loop
    vertex -5 1000 0
    vertex -3.75 1125 0
    vertex -3.75 1000 0
  endloop
endfacet
facet normal 0 0 -1
  outer loop
    vertex -3.75 1125 0
    vertex -2.5 1125 0
    vertex -3.75 1000 0
  endloop
endfacet
facet normal 0 0 -1
  outer loop
    vertex -3.75 1125 0
    vertex -2.5 1250 0
    vertex -2.5 1125 0
  endloop
endfacet
facet normal 0 0 -1
  outer loop
    vertex -3.75 1000 0
    vertex -2.5 1125 0
    vertex -2.5 1000 0
  endloop
endfacet
facet normal 0 0 -1
  outer loop
    vertex -2.5 1250 0
    vertex -1.25 1250 0
    vertex -2.5 1125 0
  endloop
endfacet
facet normal 0 -0 -1
  outer loop
    vertex -1.25 1250 0
    vertex -1.25 1125 0
    vertex -2.5 1125 0
  endloop
endfacet
facet normal 0 0 -1
  outer loop
    vertex -1.25 1250 0
    vertex 0 1250 0
    vertex -1.25 1125 0
  endloop
endfacet
facet normal 0 0 -1
  outer loop
    vertex -2.5 1125 0
    vertex -1.25 1125 0
    vertex -2.5 1000 0
  endloop
endfacet
facet normal 0 0 -1
  outer loop
    vertex -2.5 1250 0
    vertex -1.25 1375 0
    vertex -1.25 1250 0
  endloop
endfacet
facet normal 0 0 -1
  outer loop
    vertex -1.25 1375 0
    vertex 0 1375 0
    vertex -1.25 1250 0
  endloop
endfacet
facet normal 0 0 -1
  outer loop
    vertex -1.25 1375 0
    vertex 0 1500 0
    vertex 0 1375 0
  endloop
endfacet
facet normal 0 0 -1
  outer loop
    vertex -1.25 1250 0
    vertex 0 1375 0
    vertex 0 1250 0
  endloop
endfacet
facet normal 0 0 -1
  outer loop
    vertex -2.5 1000 0
    vertex -1.25 1125 0
    vertex -1.25 1000 0
  endloop
endfacet
facet normal 0 0 -1
  outer loop
    vertex -1.25 1125 0
    vertex 0 1125 0
    vertex -1.25 1000 0
  endloop
endfacet
facet normal 0 0 -1
  outer loop
    vertex -1.25 1125 0
    vertex 0 1250 0
    vertex 0 1125 0
  endloop
endfacet
facet normal 0 0 -1
  outer loop
    vertex -1.25 1000 0
    vertex 0 1125 0
    vertex 0 1000 0
  endloop
endfacet
facet normal 0 0 -1
  outer loop
    vertex -10 1000 0
    vertex -10 1125 0
    vertex -8.75 1125 0
  endloop
endfacet
facet normal 0 0 -1
  outer loop
    vertex -10 1125 0
    vertex -8.75 1250 0
    vertex -8.75 1125 0
  endloop
endfacet
facet normal 0 0 -1
  outer loop
    vertex -10 1125 0
    vertex -10 1250 0
    vertex -8.75 1250 0
  endloop
endfacet
facet normal 0 0 -1
  outer loop
    vertex -8.75 1125 0
    vertex -8.75 1250 0
    vertex -7.5 1250 0
  endloop
endfacet
facet normal 0 0 -1
  outer loop
    vertex -10 1250 0
    vertex -8.75 1375 0
    vertex -8.75 1250 0
  endloop
endfacet
facet normal 0 0 -1
  outer loop
    vertex -8.75 1375 0
    vertex -7.5 1375 0
    vertex -8.75 1250 0
  endloop
endfacet
facet normal 0 0 -1
  outer loop
    vertex -8.75 1375 0
    vertex -7.5 1500 0
    vertex -7.5 1375 0
  endloop
endfacet
facet normal 0 0 -1
  outer loop
    vertex -8.75 1250 0
    vertex -7.5 1375 0
    vertex -7.5 1250 0
  endloop
endfacet
facet normal 0 0 -1
  outer loop
    vertex -10 1250 0
    vertex -10 1375 0
    vertex -8.75 1375 0
  endloop
endfacet
facet normal 0 0 -1
  outer loop
    vertex -10 1375 0
    vertex -8.75 1500 0
    vertex -8.75 1375 0
  endloop
endfacet
facet normal 0 0 -1
  outer loop
    vertex -10 1375 0
    vertex -10 1500 0
    vertex -8.75 1500 0
  endloop
endfacet
facet normal 0 0 -1
  outer loop
    vertex -8.75 1375 0
    vertex -8.75 1500 0
    vertex -7.5 1500 0
  endloop
endfacet
facet normal 0 0 -1
  outer loop
    vertex -7.5 1250 0
    vertex -7.5 1375 0
    vertex -6.25 1375 0
  endloop
endfacet
facet normal 0 0 -1
  outer loop
    vertex -7.5 1375 0
    vertex -6.25 1500 0
    vertex -6.25 1375 0
  endloop
endfacet
facet normal 0 0 -1
  outer loop
    vertex -7.5 1375 0
    vertex -7.5 1500 0
    vertex -6.25 1500 0
  endloop
endfacet
facet normal 0 0 -1
  outer loop
    vertex -6.25 1375 0
    vertex -6.25 1500 0
    vertex -5 1500 0
  endloop
endfacet
facet normal 0 0 -1
  outer loop
    vertex -10 1500 0
    vertex -8.75 1625 0
    vertex -8.75 1500 0
  endloop
endfacet
facet normal 0 0 -1
  outer loop
    vertex -8.75 1625 0
    vertex -7.5 1625 0
    vertex -8.75 1500 0
  endloop
endfacet
facet normal 0 0 -1
  outer loop
    vertex -8.75 1625 0
    vertex -7.5 1750 0
    vertex -7.5 1625 0
  endloop
endfacet
facet normal 0 0 -1
  outer loop
    vertex -8.75 1500 0
    vertex -7.5 1625 0
    vertex -7.5 1500 0
  endloop
endfacet
facet normal 0 0 -1
  outer loop
    vertex -7.5 1750 0
    vertex -6.25 1750 0
    vertex -7.5 1625 0
  endloop
endfacet
facet normal 0 -0 -1
  outer loop
    vertex -6.25 1750 0
    vertex -6.25 1625 0
    vertex -7.5 1625 0
  endloop
endfacet
facet normal 0 0 -1
  outer loop
    vertex -6.25 1750 0
    vertex -5 1750 0
    vertex -6.25 1625 0
  endloop
endfacet
facet normal 0 0 -1
  outer loop
    vertex -7.5 1625 0
    vertex -6.25 1625 0
    vertex -7.5 1500 0
  endloop
endfacet
facet normal 0 0 -1
  outer loop
    vertex -7.5 1750 0
    vertex -6.25 1875 0
    vertex -6.25 1750 0
  endloop
endfacet
facet normal 0 0 -1
  outer loop
    vertex -6.25 1875 0
    vertex -5 1875 0
    vertex -6.25 1750 0
  endloop
endfacet
facet normal 0 0 -1
  outer loop
    vertex -6.25 1875 0
    vertex -5 2000 0
    vertex -5 1875 0
  endloop
endfacet
facet normal 0 0 -1
  outer loop
    vertex -6.25 1750 0
    vertex -5 1875 0
    vertex -5 1750 0
  endloop
endfacet
facet normal 0 0 -1
  outer loop
    vertex -7.5 1500 0
    vertex -6.25 1625 0
    vertex -6.25 1500 0
  endloop
endfacet
facet normal 0 0 -1
  outer loop
    vertex -6.25 1625 0
    vertex -5 1625 0
    vertex -6.25 1500 0
  endloop
endfacet
facet normal 0 0 -1
  outer loop
    vertex -6.25 1625 0
    vertex -5 1750 0
    vertex -5 1625 0
  endloop
endfacet
facet normal 0 0 -1
  outer loop
    vertex -6.25 1500 0
    vertex -5 1625 0
    vertex -5 1500 0
  endloop
endfacet
facet normal 0 0 -1
  outer loop
    vertex -10 1500 0
    vertex -10 1625 0
    vertex -8.75 1625 0
  endloop
endfacet
facet normal 0 0 -1
  outer loop
    vertex -10 1625 0
    vertex -8.75 1750 0
    vertex -8.75 1625 0
  endloop
endfacet
facet normal 0 0 -1
  outer loop
    vertex -10 1625 0
    vertex -10 1750 0
    vertex -8.75 1750 0
  endloop
endfacet
facet normal 0 0 -1
  outer loop
    vertex -8.75 1625 0
    vertex -8.75 1750 0
    vertex -7.5 1750 0
  endloop
endfacet
facet normal 0 0 -1
  outer loop
    vertex -10 1750 0
    vertex -8.75 1875 0
    vertex -8.75 1750 0
  endloop
endfacet
facet normal 0 0 -1
  outer loop
    vertex -8.75 1875 0
    vertex -7.5 1875 0
    vertex -8.75 1750 0
  endloop
endfacet
facet normal 0 0 -1
  outer loop
    vertex -8.75 1875 0
    vertex -7.5 2000 0
    vertex -7.5 1875 0
  endloop
endfacet
facet normal 0 0 -1
  outer loop
    vertex -8.75 1750 0
    vertex -7.5 1875 0
    vertex -7.5 1750 0
  endloop
endfacet
facet normal 0 0 -1
  outer loop
    vertex -10 1750 0
    vertex -10 1875 0
    vertex -8.75 1875 0
  endloop
endfacet
facet normal 0 0 -1
  outer loop
    vertex -10 1875 0
    vertex -8.75 2000 0
    vertex -8.75 1875 0
  endloop
endfacet
facet normal 0 0 -1
  outer loop
    vertex -10 1875 0
    vertex -10 2000 0
    vertex -8.75 2000 0
  endloop
endfacet
facet normal 0 0 -1
  outer loop
    vertex -8.75 1875 0
    vertex -8.75 2000 0
    vertex -7.5 2000 0
  endloop
endfacet
facet normal 0 0 -1
  outer loop
    vertex -7.5 1750 0
    vertex -7.5 1875 0
    vertex -6.25 1875 0
  endloop
endfacet
facet normal 0 0 -1
  outer loop
    vertex -7.5 1875 0
    vertex -6.25 2000 0
    vertex -6.25 1875 0
  endloop
endfacet
facet normal 0 0 -1
  outer loop
    vertex -7.5 1875 0
    vertex -7.5 2000 0
    vertex -6.25 2000 0
  endloop
endfacet
facet normal 0 0 -1
  outer loop
    vertex -6.25 1875 0
    vertex -6.25 2000 0
    vertex -5 2000 0
  endloop
endfacet
facet normal 0 0 -1
  outer loop
    vertex -5 1500 0
    vertex -5 1625 0
    vertex -3.75 1625 0
  endloop
endfacet
facet normal 0 0 -1
  outer loop
    vertex -5 1625 0
    vertex -3.75 1750 0
    vertex -3.75 1625 0
  endloop
endfacet
facet normal 0 0 -1
  outer loop
    vertex -5 1625 0
    vertex -5 1750 0
    vertex -3.75 1750 0
  endloop
endfacet
facet normal 0 0 -1
  outer loop
    vertex -3.75 1625 0
    vertex -3.75 1750 0
    vertex -2.5 1750 0
  endloop
endfacet
facet normal 0 0 -1
  outer loop
    vertex -5 1750 0
    vertex -3.75 1875 0
    vertex -3.75 1750 0
  endloop
endfacet
facet normal 0 0 -1
  outer loop
    vertex -3.75 1875 0
    vertex -2.5 1875 0
    vertex -3.75 1750 0
  endloop
endfacet
facet normal 0 0 -1
  outer loop
    vertex -3.75 1875 0
    vertex -2.5 2000 0
    vertex -2.5 1875 0
  endloop
endfacet
facet normal 0 0 -1
  outer loop
    vertex -3.75 1750 0
    vertex -2.5 1875 0
    vertex -2.5 1750 0
  endloop
endfacet
facet normal 0 0 -1
  outer loop
    vertex -5 1750 0
    vertex -5 1875 0
    vertex -3.75 1875 0
  endloop
endfacet
facet normal 0 0 -1
  outer loop
    vertex -5 1875 0
    vertex -3.75 2000 0
    vertex -3.75 1875 0
  endloop
endfacet
facet normal 0 0 -1
  outer loop
    vertex -5 1875 0
    vertex -5 2000 0
    vertex -3.75 2000 0
  endloop
endfacet
facet normal 0 0 -1
  outer loop
    vertex -3.75 1875 0
    vertex -3.75 2000 0
    vertex -2.5 2000 0
  endloop
endfacet
facet normal 0 0 -1
  outer loop
    vertex -2.5 1750 0
    vertex -2.5 1875 0
    vertex -1.25 1875 0
  endloop
endfacet
facet normal 0 0 -1
  outer loop
    vertex -2.5 1875 0
    vertex -1.25 2000 0
    vertex -1.25 1875 0
  endloop
endfacet
facet normal 0 0 -1
  outer loop
    vertex -2.5 1875 0
    vertex -2.5 2000 0
    vertex -1.25 2000 0
  endloop
endfacet
facet normal 0 0 -1
  outer loop
    vertex -1.25 1875 0
    vertex -1.25 2000 0
    vertex 0 2000 0
  endloop
endfacet
facet normal 0 0 -1
  outer loop
    vertex 0 1000 0
    vertex 0 1125 0
    vertex 1.25 1125 0
  endloop
endfacet
facet normal 0 0 -1
  outer loop
    vertex 0 1125 0
    vertex 1.25 1250 0
    vertex 1.25 1125 0
  endloop
endfacet
facet normal 0 0 -1
  outer loop
    vertex 0 1125 0
    vertex 0 1250 0
    vertex 1.25 1250 0
  endloop
endfacet
facet normal 0 0 -1
  outer loop
    vertex 1.25 1125 0
    vertex 1.25 1250 0
    vertex 2.5 1250 0
  endloop
endfacet
facet normal 0 0 -1
  outer loop
    vertex 0 1250 0
    vertex 1.25 1375 0
    vertex 1.25 1250 0
  endloop
endfacet
facet normal 0 0 -1
  outer loop
    vertex 1.25 1375 0
    vertex 2.5 1375 0
    vertex 1.25 1250 0
  endloop
endfacet
facet normal 0 0 -1
  outer loop
    vertex 1.25 1375 0
    vertex 2.5 1500 0
    vertex 2.5 1375 0
  endloop
endfacet
facet normal 0 0 -1
  outer loop
    vertex 1.25 1250 0
    vertex 2.5 1375 0
    vertex 2.5 1250 0
  endloop
endfacet
facet normal 0 0 -1
  outer loop
    vertex 0 1250 0
    vertex 0 1375 0
    vertex 1.25 1375 0
  endloop
endfacet
facet normal 0 0 -1
  outer loop
    vertex 0 1375 0
    vertex 1.25 1500 0
    vertex 1.25 1375 0
  endloop
endfacet
facet normal 0 0 -1
  outer loop
    vertex 0 1375 0
    vertex 0 1500 0
    vertex 1.25 1500 0
  endloop
endfacet
facet normal 0 0 -1
  outer loop
    vertex 1.25 1375 0
    vertex 1.25 1500 0
    vertex 2.5 1500 0
  endloop
endfacet
facet normal 0 0 -1
  outer loop
    vertex 2.5 1250 0
    vertex 2.5 1375 0
    vertex 3.75 1375 0
  endloop
endfacet
facet normal 0 0 -1
  outer loop
    vertex 2.5 1375 0
    vertex 3.75 1500 0
    vertex 3.75 1375 0
  endloop
endfacet
facet normal 0 0 -1
  outer loop
    vertex 2.5 1375 0
    vertex 2.5 1500 0
    vertex 3.75 1500 0
  endloop
endfacet
facet normal 0 0 -1
  outer loop
    vertex 3.75 1375 0
    vertex 3.75 1500 0
    vertex 5 1500 0
  endloop
endfacet
facet normal 0 0 -1
  outer loop
    vertex 0 1500 0
    vertex 1.25 1625 0
    vertex 1.25 1500 0
  endloop
endfacet
facet normal 0 0 -1
  outer loop
    vertex 1.25 1625 0
    vertex 2.5 1625 0
    vertex 1.25 1500 0
  endloop
endfacet
facet normal 0 0 -1
  outer loop
    vertex 1.25 1625 0
    vertex 2.5 1750 0
    vertex 2.5 1625 0
  endloop
endfacet
facet normal 0 0 -1
  outer loop
    vertex 1.25 1500 0
    vertex 2.5 1625 0
    vertex 2.5 1500 0
  endloop
endfacet
facet normal 0 0 -1
  outer loop
    vertex 2.5 1750 0
    vertex 3.75 1750 0
    vertex 2.5 1625 0
  endloop
endfacet
facet normal 0 -0 -1
  outer loop
    vertex 3.75 1750 0
    vertex 3.75 1625 0
    vertex 2.5 1625 0
  endloop
endfacet
facet normal 0 0 -1
  outer loop
    vertex 3.75 1750 0
    vertex 5 1750 0
    vertex 3.75 1625 0
  endloop
endfacet
facet normal 0 0 -1
  outer loop
    vertex 2.5 1625 0
    vertex 3.75 1625 0
    vertex 2.5 1500 0
  endloop
endfacet
facet normal 0 0 -1
  outer loop
    vertex 2.5 1750 0
    vertex 3.75 1875 0
    vertex 3.75 1750 0
  endloop
endfacet
facet normal 0 0 -1
  outer loop
    vertex 3.75 1875 0
    vertex 5 1875 0
    vertex 3.75 1750 0
  endloop
endfacet
facet normal 0 0 -1
  outer loop
    vertex 3.75 1875 0
    vertex 5 2000 0
    vertex 5 1875 0
  endloop
endfacet
facet normal 0 0 -1
  outer loop
    vertex 3.75 1750 0
    vertex 5 1875 0
    vertex 5 1750 0
  endloop
endfacet
facet normal 0 0 -1
  outer loop
    vertex 2.5 1500 0
    vertex 3.75 1625 0
    vertex 3.75 1500 0
  endloop
endfacet
facet normal 0 0 -1
  outer loop
    vertex 3.75 1625 0
    vertex 5 1625 0
    vertex 3.75 1500 0
  endloop
endfacet
facet normal 0 0 -1
  outer loop
    vertex 3.75 1625 0
    vertex 5 1750 0
    vertex 5 1625 0
  endloop
endfacet
facet normal 0 0 -1
  outer loop
    vertex 3.75 1500 0
    vertex 5 1625 0
    vertex 5 1500 0
  endloop
endfacet
facet normal 0 0 -1
  outer loop
    vertex 0 1500 0
    vertex 0 1625 0
    vertex 1.25 1625 0
  endloop
endfacet
facet normal 0 0 -1
  outer loop
    vertex 0 1625 0
    vertex 1.25 1750 0
    vertex 1.25 1625 0
  endloop
endfacet
facet normal 0 0 -1
  outer loop
    vertex 0 1625 0
    vertex 0 1750 0
    vertex 1.25 1750 0
  endloop
endfacet
facet normal 0 0 -1
  outer loop
    vertex 1.25 1625 0
    vertex 1.25 1750 0
    vertex 2.5 1750 0
  endloop
endfacet
facet normal 0 0 -1
  outer loop
    vertex 0 1750 0
    vertex 1.25 1875 0
    vertex 1.25 1750 0
  endloop
endfacet
facet normal 0 0 -1
  outer loop
    vertex 1.25 1875 0
    vertex 2.5 1875 0
    vertex 1.25 1750 0
  endloop
endfacet
facet normal 0 0 -1
  outer loop
    vertex 1.25 1875 0
    vertex 2.5 2000 0
    vertex 2.5 1875 0
  endloop
endfacet
facet normal 0 0 -1
  outer loop
    vertex 1.25 1750 0
    vertex 2.5 1875 0
    vertex 2.5 1750 0
  endloop
endfacet
facet normal 0 0 -1
  outer loop
    vertex 0 1750 0
    vertex 0 1875 0
    vertex 1.25 1875 0
  endloop
endfacet
facet normal 0 0 -1
  outer loop
    vertex 0 1875 0
    vertex 1.25 2000 0
    vertex 1.25 1875 0
  endloop
endfacet
facet normal 0 0 -1
  outer loop
    vertex 0 1875 0
    vertex 0 2000 0
    vertex 1.25 2000 0
  endloop
endfacet
facet normal 0 0 -1
  outer loop
    vertex 1.25 1875 0
    vertex 1.25 2000 0
    vertex 2.5 2000 0
  endloop
endfacet
facet normal 0 0 -1
  outer loop
    vertex 2.5 1750 0
    vertex 2.5 1875 0
    vertex 3.75 1875 0
  endloop
endfacet
facet normal 0 0 -1
  outer loop
    vertex 2.5 1875 0
    vertex 3.75 2000 0
    vertex 3.75 1875 0
  endloop
endfacet
facet normal 0 0 -1
  outer loop
    vertex 2.5 1875 0
    vertex 2.5 2000 0
    vertex 3.75 2000 0
  endloop
endfacet
facet normal 0 0 -1
  outer loop
    vertex 3.75 1875 0
    vertex 3.75 2000 0
    vertex 5 2000 0
  endloop
endfacet
facet normal 0 0 -1
  outer loop
    vertex 5 1500 0
    vertex 5 1625 0
    vertex 6.25 1625 0
  endloop
endfacet
facet normal 0 0 -1
  outer loop
    vertex 5 1625 0
    vertex 6.25 1750 0
    vertex 6.25 1625 0
  endloop
endfacet
facet normal 0 0 -1
  outer loop
    vertex 5 1625 0
    vertex 5 1750 0
    vertex 6.25 1750 0
  endloop
endfacet
facet normal 0 0 -1
  outer loop
    vertex 6.25 1625 0
    vertex 6.25 1750 0
    vertex 7.5 1750 0
  endloop
endfacet
facet normal 0 0 -1
  outer loop
    vertex 5 1750 0
    vertex 6.25 1875 0
    vertex 6.25 1750 0
  endloop
endfacet
facet normal 0 0 -1
  outer loop
    vertex 6.25 1875 0
    vertex 7.5 1875 0
    vertex 6.25 1750 0
  endloop
endfacet
facet normal 0 0 -1
  outer loop
    vertex 6.25 1875 0
    vertex 7.5 2000 0
    vertex 7.5 1875 0
  endloop
endfacet
facet normal 0 0 -1
  outer loop
    vertex 6.25 1750 0
    vertex 7.5 1875 0
    vertex 7.5 1750 0
  endloop
endfacet
facet normal 0 0 -1
  outer loop
    vertex 5 1750 0
    vertex 5 1875 0
    vertex 6.25 1875 0
  endloop
endfacet
facet normal 0 0 -1
  outer loop
    vertex 5 1875 0
    vertex 6.25 2000 0
    vertex 6.25 1875 0
  endloop
endfacet
facet normal 0 0 -1
  outer loop
    vertex 5 1875 0
    vertex 5 2000 0
    vertex 6.25 2000 0
  endloop
endfacet
facet normal 0 0 -1
  outer loop
    vertex 6.25 1875 0
    vertex 6.25 2000 0
    vertex 7.5 2000 0
  endloop
endfacet
facet normal 0 0 -1
  outer loop
    vertex 7.5 1750 0
    vertex 7.5 1875 0
    vertex 8.75 1875 0
  endloop
endfacet
facet normal 0 0 -1
  outer loop
    vertex 7.5 1875 0
    vertex 8.75 2000 0
    vertex 8.75 1875 0
  endloop
endfacet
facet normal 0 0 -1
  outer loop
    vertex 7.5 1875 0
    vertex 7.5 2000 0
    vertex 8.75 2000 0
  endloop
endfacet
facet normal 0 0 -1
  outer loop
    vertex 8.75 1875 0
    vertex 8.75 2000 0
    vertex 10 2000 0
  endloop
endfacet
endsolid Created by Gmsh
