solid Created by Gmsh
facet normal 0 -0 -1
  outer loop
    vertex 10 1000 0
    vertex 10 937.5 0
    vertex 8.75 937.5 0
  endloop
endfacet
facet normal -0 0 -1
  outer loop
    vertex 10 937.5 0
    vertex 8.75 875 0
    vertex 8.75 937.5 0
  endloop
endfacet
facet normal 0 -0 -1
  outer loop
    vertex 10 937.5 0
    vertex 10 875 0
    vertex 8.75 875 0
  endloop
endfacet
facet normal 0 -0 -1
  outer loop
    vertex 8.75 937.5 0
    vertex 8.75 875 0
    vertex 7.5 875 0
  endloop
endfacet
facet normal -0 0 -1
  outer loop
    vertex 10 875 0
    vertex 8.75 812.5 0
    vertex 8.75 875 0
  endloop
endfacet
facet normal 0 0 -1
  outer loop
    vertex 8.75 812.5 0
    vertex 7.5 812.5 0
    vertex 8.75 875 0
  endloop
endfacet
facet normal -0 0 -1
  outer loop
    vertex 8.75 812.5 0
    vertex 7.5 750 0
    vertex 7.5 812.5 0
  endloop
endfacet
facet normal -0 0 -1
  outer loop
    vertex 8.75 875 0
    vertex 7.5 812.5 0
    vertex 7.5 875 0
  endloop
endfacet
facet normal 0 -0 -1
  outer loop
    vertex 10 875 0
    vertex 10 812.5 0
    vertex 8.75 812.5 0
  endloop
endfacet
facet normal -0 0 -1
  outer loop
    vertex 10 812.5 0
    vertex 8.75 750 0
    vertex 8.75 812.5 0
  endloop
endfacet
facet normal 0 -0 -1
  outer loop
    vertex 10 812.5 0
    vertex 10 750 0
    vertex 8.75 750 0
  endloop
endfacet
facet normal 0 -0 -1
  outer loop
    vertex 8.75 812.5 0
    vertex 8.75 750 0
    vertex 7.5 750 0
  endloop
endfacet
facet normal 0 -0 -1
  outer loop
    vertex 7.5 875 0
    vertex 7.5 812.5 0
    vertex 6.25 812.5 0
  endloop
endfacet
facet normal -0 0 -1
  outer loop
    vertex 7.5 812.5 0
    vertex 6.25 750 0
    vertex 6.25 812.5 0
  endloop
endfacet
facet normal 0 -0 -1
  outer loop
    vertex 7.5 812.5 0
    vertex 7.5 750 0
    vertex 6.25 750 0
  endloop
endfacet
facet normal 0 -0 -1
  outer loop
    vertex 6.25 812.5 0
    vertex 6.25 750 0
    vertex 5 750 0
  endloop
endfacet
facet normal -0 0 -1
  outer loop
    vertex 10 750 0
    vertex 8.75 687.5 0
    vertex 8.75 750 0
  endloop
endfacet
facet normal 0 0 -1
  outer loop
    vertex 8.75 687.5 0
    vertex 7.5 687.5 0
    vertex 8.75 750 0
  endloop
endfacet
facet normal -0 0 -1
  outer loop
    vertex 8.75 687.5 0
    vertex 7.5 625 0
    vertex 7.5 687.5 0
  endloop
endfacet
facet normal -0 0 -1
  outer loop
    vertex 8.75 750 0
    vertex 7.5 687.5 0
    vertex 7.5 750 0
  endloop
endfacet
facet normal 0 0 -1
  outer loop
    vertex 7.5 625 0
    vertex 6.25 625 0
    vertex 7.5 687.5 0
  endloop
endfacet
facet normal 0 0 -1
  outer loop
    vertex 6.25 625 0
    vertex 6.25 687.5 0
    vertex 7.5 687.5 0
  endloop
endfacet
facet normal 0 0 -1
  outer loop
    vertex 6.25 625 0
    vertex 5 625 0
    vertex 6.25 687.5 0
  endloop
endfacet
facet normal 0 0 -1
  outer loop
    vertex 7.5 687.5 0
    vertex 6.25 687.5 0
    vertex 7.5 750 0
  endloop
endfacet
facet normal -0 0 -1
  outer loop
    vertex 7.5 625 0
    vertex 6.25 562.5 0
    vertex 6.25 625 0
  endloop
endfacet
facet normal 0 0 -1
  outer loop
    vertex 6.25 562.5 0
    vertex 5 562.5 0
    vertex 6.25 625 0
  endloop
endfacet
facet normal -0 0 -1
  outer loop
    vertex 6.25 562.5 0
    vertex 5 500 0
    vertex 5 562.5 0
  endloop
endfacet
facet normal -0 0 -1
  outer loop
    vertex 6.25 625 0
    vertex 5 562.5 0
    vertex 5 625 0
  endloop
endfacet
facet normal -0 0 -1
  outer loop
    vertex 7.5 750 0
    vertex 6.25 687.5 0
    vertex 6.25 750 0
  endloop
endfacet
facet normal 0 0 -1
  outer loop
    vertex 6.25 687.5 0
    vertex 5 687.5 0
    vertex 6.25 750 0
  endloop
endfacet
facet normal -0 0 -1
  outer loop
    vertex 6.25 687.5 0
    vertex 5 625 0
    vertex 5 687.5 0
  endloop
endfacet
facet normal -0 0 -1
  outer loop
    vertex 6.25 750 0
    vertex 5 687.5 0
    vertex 5 750 0
  endloop
endfacet
facet normal 0 -0 -1
  outer loop
    vertex 10 750 0
    vertex 10 687.5 0
    vertex 8.75 687.5 0
  endloop
endfacet
facet normal -0 0 -1
  outer loop
    vertex 10 687.5 0
    vertex 8.75 625 0
    vertex 8.75 687.5 0
  endloop
endfacet
facet normal 0 -0 -1
  outer loop
    vertex 10 687.5 0
    vertex 10 625 0
    vertex 8.75 625 0
  endloop
endfacet
facet normal 0 -0 -1
  outer loop
    vertex 8.75 687.5 0
    vertex 8.75 625 0
    vertex 7.5 625 0
  endloop
endfacet
facet normal -0 0 -1
  outer loop
    vertex 10 625 0
    vertex 8.75 562.5 0
    vertex 8.75 625 0
  endloop
endfacet
facet normal 0 0 -1
  outer loop
    vertex 8.75 562.5 0
    vertex 7.5 562.5 0
    vertex 8.75 625 0
  endloop
endfacet
facet normal -0 0 -1
  outer loop
    vertex 8.75 562.5 0
    vertex 7.5 500 0
    vertex 7.5 562.5 0
  endloop
endfacet
facet normal -0 0 -1
  outer loop
    vertex 8.75 625 0
    vertex 7.5 562.5 0
    vertex 7.5 625 0
  endloop
endfacet
facet normal 0 -0 -1
  outer loop
    vertex 10 625 0
    vertex 10 562.5 0
    vertex 8.75 562.5 0
  endloop
endfacet
facet normal -0 0 -1
  outer loop
    vertex 10 562.5 0
    vertex 8.75 500 0
    vertex 8.75 562.5 0
  endloop
endfacet
facet normal 0 -0 -1
  outer loop
    vertex 10 562.5 0
    vertex 10 500 0
    vertex 8.75 500 0
  endloop
endfacet
facet normal 0 -0 -1
  outer loop
    vertex 8.75 562.5 0
    vertex 8.75 500 0
    vertex 7.5 500 0
  endloop
endfacet
facet normal 0 -0 -1
  outer loop
    vertex 7.5 625 0
    vertex 7.5 562.5 0
    vertex 6.25 562.5 0
  endloop
endfacet
facet normal -0 0 -1
  outer loop
    vertex 7.5 562.5 0
    vertex 6.25 500 0
    vertex 6.25 562.5 0
  endloop
endfacet
facet normal 0 -0 -1
  outer loop
    vertex 7.5 562.5 0
    vertex 7.5 500 0
    vertex 6.25 500 0
  endloop
endfacet
facet normal 0 -0 -1
  outer loop
    vertex 6.25 562.5 0
    vertex 6.25 500 0
    vertex 5 500 0
  endloop
endfacet
facet normal 0 -0 -1
  outer loop
    vertex 5 750 0
    vertex 5 687.5 0
    vertex 3.75 687.5 0
  endloop
endfacet
facet normal -0 0 -1
  outer loop
    vertex 5 687.5 0
    vertex 3.75 625 0
    vertex 3.75 687.5 0
  endloop
endfacet
facet normal 0 -0 -1
  outer loop
    vertex 5 687.5 0
    vertex 5 625 0
    vertex 3.75 625 0
  endloop
endfacet
facet normal 0 -0 -1
  outer loop
    vertex 3.75 687.5 0
    vertex 3.75 625 0
    vertex 2.5 625 0
  endloop
endfacet
facet normal -0 0 -1
  outer loop
    vertex 5 625 0
    vertex 3.75 562.5 0
    vertex 3.75 625 0
  endloop
endfacet
facet normal 0 0 -1
  outer loop
    vertex 3.75 562.5 0
    vertex 2.5 562.5 0
    vertex 3.75 625 0
  endloop
endfacet
facet normal -0 0 -1
  outer loop
    vertex 3.75 562.5 0
    vertex 2.5 500 0
    vertex 2.5 562.5 0
  endloop
endfacet
facet normal -0 0 -1
  outer loop
    vertex 3.75 625 0
    vertex 2.5 562.5 0
    vertex 2.5 625 0
  endloop
endfacet
facet normal 0 -0 -1
  outer loop
    vertex 5 625 0
    vertex 5 562.5 0
    vertex 3.75 562.5 0
  endloop
endfacet
facet normal -0 0 -1
  outer loop
    vertex 5 562.5 0
    vertex 3.75 500 0
    vertex 3.75 562.5 0
  endloop
endfacet
facet normal 0 -0 -1
  outer loop
    vertex 5 562.5 0
    vertex 5 500 0
    vertex 3.75 500 0
  endloop
endfacet
facet normal 0 -0 -1
  outer loop
    vertex 3.75 562.5 0
    vertex 3.75 500 0
    vertex 2.5 500 0
  endloop
endfacet
facet normal 0 -0 -1
  outer loop
    vertex 2.5 625 0
    vertex 2.5 562.5 0
    vertex 1.25 562.5 0
  endloop
endfacet
facet normal -0 0 -1
  outer loop
    vertex 2.5 562.5 0
    vertex 1.25 500 0
    vertex 1.25 562.5 0
  endloop
endfacet
facet normal 0 -0 -1
  outer loop
    vertex 2.5 562.5 0
    vertex 2.5 500 0
    vertex 1.25 500 0
  endloop
endfacet
facet normal 0 -0 -1
  outer loop
    vertex 1.25 562.5 0
    vertex 1.25 500 0
    vertex 0 500 0
  endloop
endfacet
facet normal -0 0 -1
  outer loop
    vertex 10 500 0
    vertex 8.75 437.5 0
    vertex 8.75 500 0
  endloop
endfacet
facet normal 0 0 -1
  outer loop
    vertex 8.75 437.5 0
    vertex 7.5 437.5 0
    vertex 8.75 500 0
  endloop
endfacet
facet normal -0 0 -1
  outer loop
    vertex 8.75 437.5 0
    vertex 7.5 375 0
    vertex 7.5 437.5 0
  endloop
endfacet
facet normal -0 0 -1
  outer loop
    vertex 8.75 500 0
    vertex 7.5 437.5 0
    vertex 7.5 500 0
  endloop
endfacet
facet normal 0 0 -1
  outer loop
    vertex 7.5 375 0
    vertex 6.25 375 0
    vertex 7.5 437.5 0
  endloop
endfacet
facet normal 0 0 -1
  outer loop
    vertex 6.25 375 0
    vertex 6.25 437.5 0
    vertex 7.5 437.5 0
  endloop
endfacet
facet normal 0 0 -1
  outer loop
    vertex 6.25 375 0
    vertex 5 375 0
    vertex 6.25 437.5 0
  endloop
endfacet
facet normal 0 0 -1
  outer loop
    vertex 7.5 437.5 0
    vertex 6.25 437.5 0
    vertex 7.5 500 0
  endloop
endfacet
facet normal -0 0 -1
  outer loop
    vertex 7.5 375 0
    vertex 6.25 312.5 0
    vertex 6.25 375 0
  endloop
endfacet
facet normal 0 0 -1
  outer loop
    vertex 6.25 312.5 0
    vertex 5 312.5 0
    vertex 6.25 375 0
  endloop
endfacet
facet normal -0 0 -1
  outer loop
    vertex 6.25 312.5 0
    vertex 5 250 0
    vertex 5 312.5 0
  endloop
endfacet
facet normal -0 0 -1
  outer loop
    vertex 6.25 375 0
    vertex 5 312.5 0
    vertex 5 375 0
  endloop
endfacet
facet normal -0 0 -1
  outer loop
    vertex 7.5 500 0
    vertex 6.25 437.5 0
    vertex 6.25 500 0
  endloop
endfacet
facet normal 0 0 -1
  outer loop
    vertex 6.25 437.5 0
    vertex 5 437.5 0
    vertex 6.25 500 0
  endloop
endfacet
facet normal -0 0 -1
  outer loop
    vertex 6.25 437.5 0
    vertex 5 375 0
    vertex 5 437.5 0
  endloop
endfacet
facet normal -0 0 -1
  outer loop
    vertex 6.25 500 0
    vertex 5 437.5 0
    vertex 5 500 0
  endloop
endfacet
facet normal 0 0 -1
  outer loop
    vertex 5 250 0
    vertex 3.75 250 0
    vertex 5 312.5 0
  endloop
endfacet
facet normal 0 0 -1
  outer loop
    vertex 3.75 250 0
    vertex 3.75 312.5 0
    vertex 5 312.5 0
  endloop
endfacet
facet normal 0 0 -1
  outer loop
    vertex 3.75 250 0
    vertex 2.5 250 0
    vertex 3.75 312.5 0
  endloop
endfacet
facet normal 0 0 -1
  outer loop
    vertex 5 312.5 0
    vertex 3.75 312.5 0
    vertex 5 375 0
  endloop
endfacet
facet normal 0 0 -1
  outer loop
    vertex 2.5 250 0
    vertex 2.5 312.5 0
    vertex 3.75 312.5 0
  endloop
endfacet
facet normal 0 0 -1
  outer loop
    vertex 2.5 312.5 0
    vertex 3.75 375 0
    vertex 3.75 312.5 0
  endloop
endfacet
facet normal 0 0 -1
  outer loop
    vertex 2.5 312.5 0
    vertex 2.5 375 0
    vertex 3.75 375 0
  endloop
endfacet
facet normal 0 0 -1
  outer loop
    vertex 3.75 312.5 0
    vertex 3.75 375 0
    vertex 5 375 0
  endloop
endfacet
facet normal 0 0 -1
  outer loop
    vertex 2.5 250 0
    vertex 1.25 250 0
    vertex 2.5 312.5 0
  endloop
endfacet
facet normal 0 0 -1
  outer loop
    vertex 1.25 250 0
    vertex 1.25 312.5 0
    vertex 2.5 312.5 0
  endloop
endfacet
facet normal 0 0 -1
  outer loop
    vertex 1.25 250 0
    vertex 0 250 0
    vertex 1.25 312.5 0
  endloop
endfacet
facet normal 0 0 -1
  outer loop
    vertex 2.5 312.5 0
    vertex 1.25 312.5 0
    vertex 2.5 375 0
  endloop
endfacet
facet normal 0 0 -1
  outer loop
    vertex 5 375 0
    vertex 3.75 375 0
    vertex 5 437.5 0
  endloop
endfacet
facet normal 0 0 -1
  outer loop
    vertex 3.75 375 0
    vertex 3.75 437.5 0
    vertex 5 437.5 0
  endloop
endfacet
facet normal 0 0 -1
  outer loop
    vertex 3.75 375 0
    vertex 2.5 375 0
    vertex 3.75 437.5 0
  endloop
endfacet
facet normal 0 0 -1
  outer loop
    vertex 5 437.5 0
    vertex 3.75 437.5 0
    vertex 5 500 0
  endloop
endfacet
facet normal -0 0 -1
  outer loop
    vertex 5 250 0
    vertex 3.75 187.5 0
    vertex 3.75 250 0
  endloop
endfacet
facet normal 0 0 -1
  outer loop
    vertex 3.75 187.5 0
    vertex 2.5 187.5 0
    vertex 3.75 250 0
  endloop
endfacet
facet normal -0 0 -1
  outer loop
    vertex 3.75 187.5 0
    vertex 2.5 125 0
    vertex 2.5 187.5 0
  endloop
endfacet
facet normal -0 0 -1
  outer loop
    vertex 3.75 250 0
    vertex 2.5 187.5 0
    vertex 2.5 250 0
  endloop
endfacet
facet normal 0 0 -1
  outer loop
    vertex 2.5 125 0
    vertex 1.25 125 0
    vertex 2.5 187.5 0
  endloop
endfacet
facet normal 0 0 -1
  outer loop
    vertex 1.25 125 0
    vertex 1.25 187.5 0
    vertex 2.5 187.5 0
  endloop
endfacet
facet normal 0 0 -1
  outer loop
    vertex 1.25 125 0
    vertex 0 125 0
    vertex 1.25 187.5 0
  endloop
endfacet
facet normal 0 0 -1
  outer loop
    vertex 2.5 187.5 0
    vertex 1.25 187.5 0
    vertex 2.5 250 0
  endloop
endfacet
facet normal -0 0 -1
  outer loop
    vertex 2.5 125 0
    vertex 1.25 62.5 0
    vertex 1.25 125 0
  endloop
endfacet
facet normal 0 0 -1
  outer loop
    vertex 1.25 62.5 0
    vertex 0 62.5 0
    vertex 1.25 125 0
  endloop
endfacet
facet normal -0 0 -1
  outer loop
    vertex 1.25 62.5 0
    vertex 0 0 0
    vertex 0 62.5 0
  endloop
endfacet
facet normal -0 0 -1
  outer loop
    vertex 1.25 125 0
    vertex 0 62.5 0
    vertex 0 125 0
  endloop
endfacet
facet normal -0 0 -1
  outer loop
    vertex 2.5 250 0
    vertex 1.25 187.5 0
    vertex 1.25 250 0
  endloop
endfacet
facet normal 0 0 -1
  outer loop
    vertex 1.25 187.5 0
    vertex 0 187.5 0
    vertex 1.25 250 0
  endloop
endfacet
facet normal -0 0 -1
  outer loop
    vertex 1.25 187.5 0
    vertex 0 125 0
    vertex 0 187.5 0
  endloop
endfacet
facet normal -0 0 -1
  outer loop
    vertex 1.25 250 0
    vertex 0 187.5 0
    vertex 0 250 0
  endloop
endfacet
facet normal -0 0 -1
  outer loop
    vertex 5 500 0
    vertex 3.75 437.5 0
    vertex 3.75 500 0
  endloop
endfacet
facet normal 0 0 -1
  outer loop
    vertex 3.75 437.5 0
    vertex 2.5 437.5 0
    vertex 3.75 500 0
  endloop
endfacet
facet normal -0 0 -1
  outer loop
    vertex 3.75 437.5 0
    vertex 2.5 375 0
    vertex 2.5 437.5 0
  endloop
endfacet
facet normal -0 0 -1
  outer loop
    vertex 3.75 500 0
    vertex 2.5 437.5 0
    vertex 2.5 500 0
  endloop
endfacet
facet normal 0 0 -1
  outer loop
    vertex 2.5 375 0
    vertex 1.25 375 0
    vertex 2.5 437.5 0
  endloop
endfacet
facet normal 0 0 -1
  outer loop
    vertex 1.25 375 0
    vertex 1.25 437.5 0
    vertex 2.5 437.5 0
  endloop
endfacet
facet normal 0 0 -1
  outer loop
    vertex 1.25 375 0
    vertex 0 375 0
    vertex 1.25 437.5 0
  endloop
endfacet
facet normal 0 0 -1
  outer loop
    vertex 2.5 437.5 0
    vertex 1.25 437.5 0
    vertex 2.5 500 0
  endloop
endfacet
facet normal -0 0 -1
  outer loop
    vertex 2.5 375 0
    vertex 1.25 312.5 0
    vertex 1.25 375 0
  endloop
endfacet
facet normal 0 0 -1
  outer loop
    vertex 1.25 312.5 0
    vertex 0 312.5 0
    vertex 1.25 375 0
  endloop
endfacet
facet normal -0 0 -1
  outer loop
    vertex 1.25 312.5 0
    vertex 0 250 0
    vertex 0 312.5 0
  endloop
endfacet
facet normal -0 0 -1
  outer loop
    vertex 1.25 375 0
    vertex 0 312.5 0
    vertex 0 375 0
  endloop
endfacet
facet normal -0 0 -1
  outer loop
    vertex 2.5 500 0
    vertex 1.25 437.5 0
    vertex 1.25 500 0
  endloop
endfacet
facet normal 0 0 -1
  outer loop
    vertex 1.25 437.5 0
    vertex 0 437.5 0
    vertex 1.25 500 0
  endloop
endfacet
facet normal -0 0 -1
  outer loop
    vertex 1.25 437.5 0
    vertex 0 375 0
    vertex 0 437.5 0
  endloop
endfacet
facet normal -0 0 -1
  outer loop
    vertex 1.25 500 0
    vertex 0 437.5 0
    vertex 0 500 0
  endloop
endfacet
facet normal 0 -0 -1
  outer loop
    vertex 10 500 0
    vertex 10 437.5 0
    vertex 8.75 437.5 0
  endloop
endfacet
facet normal -0 0 -1
  outer loop
    vertex 10 437.5 0
    vertex 8.75 375 0
    vertex 8.75 437.5 0
  endloop
endfacet
facet normal 0 -0 -1
  outer loop
    vertex 10 437.5 0
    vertex 10 375 0
    vertex 8.75 375 0
  endloop
endfacet
facet normal 0 -0 -1
  outer loop
    vertex 8.75 437.5 0
    vertex 8.75 375 0
    vertex 7.5 375 0
  endloop
endfacet
facet normal -0 0 -1
  outer loop
    vertex 10 375 0
    vertex 8.75 312.5 0
    vertex 8.75 375 0
  endloop
endfacet
facet normal 0 0 -1
  outer loop
    vertex 8.75 312.5 0
    vertex 7.5 312.5 0
    vertex 8.75 375 0
  endloop
endfacet
facet normal -0 0 -1
  outer loop
    vertex 8.75 312.5 0
    vertex 7.5 250 0
    vertex 7.5 312.5 0
  endloop
endfacet
facet normal -0 0 -1
  outer loop
    vertex 8.75 375 0
    vertex 7.5 312.5 0
    vertex 7.5 375 0
  endloop
endfacet
facet normal 0 -0 -1
  outer loop
    vertex 10 375 0
    vertex 10 312.5 0
    vertex 8.75 312.5 0
  endloop
endfacet
facet normal -0 0 -1
  outer loop
    vertex 10 312.5 0
    vertex 8.75 250 0
    vertex 8.75 312.5 0
  endloop
endfacet
facet normal 0 -0 -1
  outer loop
    vertex 10 312.5 0
    vertex 10 250 0
    vertex 8.75 250 0
  endloop
endfacet
facet normal 0 -0 -1
  outer loop
    vertex 8.75 312.5 0
    vertex 8.75 250 0
    vertex 7.5 250 0
  endloop
endfacet
facet normal 0 -0 -1
  outer loop
    vertex 7.5 375 0
    vertex 7.5 312.5 0
    vertex 6.25 312.5 0
  endloop
endfacet
facet normal -0 0 -1
  outer loop
    vertex 7.5 312.5 0
    vertex 6.25 250 0
    vertex 6.25 312.5 0
  endloop
endfacet
facet normal 0 -0 -1
  outer loop
    vertex 7.5 312.5 0
    vertex 7.5 250 0
    vertex 6.25 250 0
  endloop
endfacet
facet normal 0 -0 -1
  outer loop
    vertex 6.25 312.5 0
    vertex 6.25 250 0
    vertex 5 250 0
  endloop
endfacet
facet normal -0 0 -1
  outer loop
    vertex 10 250 0
    vertex 8.75 187.5 0
    vertex 8.75 250 0
  endloop
endfacet
facet normal 0 0 -1
  outer loop
    vertex 8.75 187.5 0
    vertex 7.5 187.5 0
    vertex 8.75 250 0
  endloop
endfacet
facet normal -0 0 -1
  outer loop
    vertex 8.75 187.5 0
    vertex 7.5 125 0
    vertex 7.5 187.5 0
  endloop
endfacet
facet normal -0 0 -1
  outer loop
    vertex 8.75 250 0
    vertex 7.5 187.5 0
    vertex 7.5 250 0
  endloop
endfacet
facet normal 0 0 -1
  outer loop
    vertex 7.5 125 0
    vertex 6.25 125 0
    vertex 7.5 187.5 0
  endloop
endfacet
facet normal 0 0 -1
  outer loop
    vertex 6.25 125 0
    vertex 6.25 187.5 0
    vertex 7.5 187.5 0
  endloop
endfacet
facet normal 0 0 -1
  outer loop
    vertex 6.25 125 0
    vertex 5 125 0
    vertex 6.25 187.5 0
  endloop
endfacet
facet normal 0 0 -1
  outer loop
    vertex 7.5 187.5 0
    vertex 6.25 187.5 0
    vertex 7.5 250 0
  endloop
endfacet
facet normal -0 0 -1
  outer loop
    vertex 7.5 125 0
    vertex 6.25 62.5 0
    vertex 6.25 125 0
  endloop
endfacet
facet normal 0 0 -1
  outer loop
    vertex 6.25 62.5 0
    vertex 5 62.5 0
    vertex 6.25 125 0
  endloop
endfacet
facet normal -0 0 -1
  outer loop
    vertex 6.25 62.5 0
    vertex 5 0 0
    vertex 5 62.5 0
  endloop
endfacet
facet normal -0 0 -1
  outer loop
    vertex 6.25 125 0
    vertex 5 62.5 0
    vertex 5 125 0
  endloop
endfacet
facet normal -0 0 -1
  outer loop
    vertex 7.5 250 0
    vertex 6.25 187.5 0
    vertex 6.25 250 0
  endloop
endfacet
facet normal 0 0 -1
  outer loop
    vertex 6.25 187.5 0
    vertex 5 187.5 0
    vertex 6.25 250 0
  endloop
endfacet
facet normal -0 0 -1
  outer loop
    vertex 6.25 187.5 0
    vertex 5 125 0
    vertex 5 187.5 0
  endloop
endfacet
facet normal -0 0 -1
  outer loop
    vertex 6.25 250 0
    vertex 5 187.5 0
    vertex 5 250 0
  endloop
endfacet
facet normal 0 -0 -1
  outer loop
    vertex 10 250 0
    vertex 10 187.5 0
    vertex 8.75 187.5 0
  endloop
endfacet
facet normal -0 0 -1
  outer loop
    vertex 10 187.5 0
    vertex 8.75 125 0
    vertex 8.75 187.5 0
  endloop
endfacet
facet normal 0 -0 -1
  outer loop
    vertex 10 187.5 0
    vertex 10 125 0
    vertex 8.75 125 0
  endloop
endfacet
facet normal 0 -0 -1
  outer loop
    vertex 8.75 187.5 0
    vertex 8.75 125 0
    vertex 7.5 125 0
  endloop
endfacet
facet normal -0 0 -1
  outer loop
    vertex 10 125 0
    vertex 8.75 62.5 0
    vertex 8.75 125 0
  endloop
endfacet
facet normal 0 0 -1
  outer loop
    vertex 8.75 62.5 0
    vertex 7.5 62.5 0
    vertex 8.75 125 0
  endloop
endfacet
facet normal -0 0 -1
  outer loop
    vertex 8.75 62.5 0
    vertex 7.5 0 0
    vertex 7.5 62.5 0
  endloop
endfacet
facet normal -0 0 -1
  outer loop
    vertex 8.75 125 0
    vertex 7.5 62.5 0
    vertex 7.5 125 0
  endloop
endfacet
facet normal 0 -0 -1
  outer loop
    vertex 10 125 0
    vertex 10 62.5 0
    vertex 8.75 62.5 0
  endloop
endfacet
facet normal -0 0 -1
  outer loop
    vertex 10 62.5 0
    vertex 8.75 0 0
    vertex 8.75 62.5 0
  endloop
endfacet
facet normal 0 -0 -1
  outer loop
    vertex 10 62.5 0
    vertex 10 0 0
    vertex 8.75 0 0
  endloop
endfacet
facet normal 0 -0 -1
  outer loop
    vertex 8.75 62.5 0
    vertex 8.75 0 0
    vertex 7.5 0 0
  endloop
endfacet
facet normal 0 -0 -1
  outer loop
    vertex 7.5 125 0
    vertex 7.5 62.5 0
    vertex 6.25 62.5 0
  endloop
endfacet
facet normal -0 0 -1
  outer loop
    vertex 7.5 62.5 0
    vertex 6.25 0 0
    vertex 6.25 62.5 0
  endloop
endfacet
facet normal 0 -0 -1
  outer loop
    vertex 7.5 62.5 0
    vertex 7.5 0 0
    vertex 6.25 0 0
  endloop
endfacet
facet normal 0 -0 -1
  outer loop
    vertex 6.25 62.5 0
    vertex 6.25 0 0
    vertex 5 0 0
  endloop
endfacet
facet normal 0 -0 -1
  outer loop
    vertex 5 250 0
    vertex 5 187.5 0
    vertex 3.75 187.5 0
  endloop
endfacet
facet normal -0 0 -1
  outer loop
    vertex 5 187.5 0
    vertex 3.75 125 0
    vertex 3.75 187.5 0
  endloop
endfacet
facet normal 0 -0 -1
  outer loop
    vertex 5 187.5 0
    vertex 5 125 0
    vertex 3.75 125 0
  endloop
endfacet
facet normal 0 -0 -1
  outer loop
    vertex 3.75 187.5 0
    vertex 3.75 125 0
    vertex 2.5 125 0
  endloop
endfacet
facet normal -0 0 -1
  outer loop
    vertex 5 125 0
    vertex 3.75 62.5 0
    vertex 3.75 125 0
  endloop
endfacet
facet normal 0 0 -1
  outer loop
    vertex 3.75 62.5 0
    vertex 2.5 62.5 0
    vertex 3.75 125 0
  endloop
endfacet
facet normal -0 0 -1
  outer loop
    vertex 3.75 62.5 0
    vertex 2.5 0 0
    vertex 2.5 62.5 0
  endloop
endfacet
facet normal -0 0 -1
  outer loop
    vertex 3.75 125 0
    vertex 2.5 62.5 0
    vertex 2.5 125 0
  endloop
endfacet
facet normal 0 -0 -1
  outer loop
    vertex 5 125 0
    vertex 5 62.5 0
    vertex 3.75 62.5 0
  endloop
endfacet
facet normal -0 0 -1
  outer loop
    vertex 5 62.5 0
    vertex 3.75 0 0
    vertex 3.75 62.5 0
  endloop
endfacet
facet normal 0 -0 -1
  outer loop
    vertex 5 62.5 0
    vertex 5 0 0
    vertex 3.75 0 0
  endloop
endfacet
facet normal 0 -0 -1
  outer loop
    vertex 3.75 62.5 0
    vertex 3.75 0 0
    vertex 2.5 0 0
  endloop
endfacet
facet normal 0 -0 -1
  outer loop
    vertex 2.5 125 0
    vertex 2.5 62.5 0
    vertex 1.25 62.5 0
  endloop
endfacet
facet normal -0 0 -1
  outer loop
    vertex 2.5 62.5 0
    vertex 1.25 0 0
    vertex 1.25 62.5 0
  endloop
endfacet
facet normal 0 -0 -1
  outer loop
    vertex 2.5 62.5 0
    vertex 2.5 0 0
    vertex 1.25 0 0
  endloop
endfacet
facet normal 0 -0 -1
  outer loop
    vertex 1.25 62.5 0
    vertex 1.25 0 0
    vertex 0 0 0
  endloop
endfacet
facet normal 0 -0 -1
  outer loop
    vertex 0 500 0
    vertex 0 437.5 0
    vertex -1.25 437.5 0
  endloop
endfacet
facet normal -0 0 -1
  outer loop
    vertex 0 437.5 0
    vertex -1.25 375 0
    vertex -1.25 437.5 0
  endloop
endfacet
facet normal 0 -0 -1
  outer loop
    vertex 0 437.5 0
    vertex 0 375 0
    vertex -1.25 375 0
  endloop
endfacet
facet normal 0 -0 -1
  outer loop
    vertex -1.25 437.5 0
    vertex -1.25 375 0
    vertex -2.5 375 0
  endloop
endfacet
facet normal -0 0 -1
  outer loop
    vertex 0 375 0
    vertex -1.25 312.5 0
    vertex -1.25 375 0
  endloop
endfacet
facet normal 0 0 -1
  outer loop
    vertex -1.25 312.5 0
    vertex -2.5 312.5 0
    vertex -1.25 375 0
  endloop
endfacet
facet normal -0 0 -1
  outer loop
    vertex -1.25 312.5 0
    vertex -2.5 250 0
    vertex -2.5 312.5 0
  endloop
endfacet
facet normal -0 0 -1
  outer loop
    vertex -1.25 375 0
    vertex -2.5 312.5 0
    vertex -2.5 375 0
  endloop
endfacet
facet normal 0 -0 -1
  outer loop
    vertex 0 375 0
    vertex 0 312.5 0
    vertex -1.25 312.5 0
  endloop
endfacet
facet normal -0 0 -1
  outer loop
    vertex 0 312.5 0
    vertex -1.25 250 0
    vertex -1.25 312.5 0
  endloop
endfacet
facet normal 0 -0 -1
  outer loop
    vertex 0 312.5 0
    vertex 0 250 0
    vertex -1.25 250 0
  endloop
endfacet
facet normal 0 -0 -1
  outer loop
    vertex -1.25 312.5 0
    vertex -1.25 250 0
    vertex -2.5 250 0
  endloop
endfacet
facet normal 0 -0 -1
  outer loop
    vertex -2.5 375 0
    vertex -2.5 312.5 0
    vertex -3.75 312.5 0
  endloop
endfacet
facet normal -0 0 -1
  outer loop
    vertex -2.5 312.5 0
    vertex -3.75 250 0
    vertex -3.75 312.5 0
  endloop
endfacet
facet normal 0 -0 -1
  outer loop
    vertex -2.5 312.5 0
    vertex -2.5 250 0
    vertex -3.75 250 0
  endloop
endfacet
facet normal 0 -0 -1
  outer loop
    vertex -3.75 312.5 0
    vertex -3.75 250 0
    vertex -5 250 0
  endloop
endfacet
facet normal -0 0 -1
  outer loop
    vertex 0 250 0
    vertex -1.25 187.5 0
    vertex -1.25 250 0
  endloop
endfacet
facet normal 0 0 -1
  outer loop
    vertex -1.25 187.5 0
    vertex -2.5 187.5 0
    vertex -1.25 250 0
  endloop
endfacet
facet normal -0 0 -1
  outer loop
    vertex -1.25 187.5 0
    vertex -2.5 125 0
    vertex -2.5 187.5 0
  endloop
endfacet
facet normal -0 0 -1
  outer loop
    vertex -1.25 250 0
    vertex -2.5 187.5 0
    vertex -2.5 250 0
  endloop
endfacet
facet normal 0 0 -1
  outer loop
    vertex -2.5 125 0
    vertex -3.75 125 0
    vertex -2.5 187.5 0
  endloop
endfacet
facet normal 0 0 -1
  outer loop
    vertex -3.75 125 0
    vertex -3.75 187.5 0
    vertex -2.5 187.5 0
  endloop
endfacet
facet normal 0 0 -1
  outer loop
    vertex -3.75 125 0
    vertex -5 125 0
    vertex -3.75 187.5 0
  endloop
endfacet
facet normal 0 0 -1
  outer loop
    vertex -2.5 187.5 0
    vertex -3.75 187.5 0
    vertex -2.5 250 0
  endloop
endfacet
facet normal -0 0 -1
  outer loop
    vertex -2.5 125 0
    vertex -3.75 62.5 0
    vertex -3.75 125 0
  endloop
endfacet
facet normal 0 0 -1
  outer loop
    vertex -3.75 62.5 0
    vertex -5 62.5 0
    vertex -3.75 125 0
  endloop
endfacet
facet normal -0 0 -1
  outer loop
    vertex -3.75 62.5 0
    vertex -5 0 0
    vertex -5 62.5 0
  endloop
endfacet
facet normal -0 0 -1
  outer loop
    vertex -3.75 125 0
    vertex -5 62.5 0
    vertex -5 125 0
  endloop
endfacet
facet normal -0 0 -1
  outer loop
    vertex -2.5 250 0
    vertex -3.75 187.5 0
    vertex -3.75 250 0
  endloop
endfacet
facet normal 0 0 -1
  outer loop
    vertex -3.75 187.5 0
    vertex -5 187.5 0
    vertex -3.75 250 0
  endloop
endfacet
facet normal -0 0 -1
  outer loop
    vertex -3.75 187.5 0
    vertex -5 125 0
    vertex -5 187.5 0
  endloop
endfacet
facet normal -0 0 -1
  outer loop
    vertex -3.75 250 0
    vertex -5 187.5 0
    vertex -5 250 0
  endloop
endfacet
facet normal 0 -0 -1
  outer loop
    vertex 0 250 0
    vertex 0 187.5 0
    vertex -1.25 187.5 0
  endloop
endfacet
facet normal -0 0 -1
  outer loop
    vertex 0 187.5 0
    vertex -1.25 125 0
    vertex -1.25 187.5 0
  endloop
endfacet
facet normal 0 -0 -1
  outer loop
    vertex 0 187.5 0
    vertex 0 125 0
    vertex -1.25 125 0
  endloop
endfacet
facet normal 0 -0 -1
  outer loop
    vertex -1.25 187.5 0
    vertex -1.25 125 0
    vertex -2.5 125 0
  endloop
endfacet
facet normal -0 0 -1
  outer loop
    vertex 0 125 0
    vertex -1.25 62.5 0
    vertex -1.25 125 0
  endloop
endfacet
facet normal 0 0 -1
  outer loop
    vertex -1.25 62.5 0
    vertex -2.5 62.5 0
    vertex -1.25 125 0
  endloop
endfacet
facet normal -0 0 -1
  outer loop
    vertex -1.25 62.5 0
    vertex -2.5 0 0
    vertex -2.5 62.5 0
  endloop
endfacet
facet normal -0 0 -1
  outer loop
    vertex -1.25 125 0
    vertex -2.5 62.5 0
    vertex -2.5 125 0
  endloop
endfacet
facet normal 0 -0 -1
  outer loop
    vertex 0 125 0
    vertex 0 62.5 0
    vertex -1.25 62.5 0
  endloop
endfacet
facet normal -0 0 -1
  outer loop
    vertex 0 62.5 0
    vertex -1.25 0 0
    vertex -1.25 62.5 0
  endloop
endfacet
facet normal 0 -0 -1
  outer loop
    vertex 0 62.5 0
    vertex 0 0 0
    vertex -1.25 0 0
  endloop
endfacet
facet normal 0 -0 -1
  outer loop
    vertex -1.25 62.5 0
    vertex -1.25 0 0
    vertex -2.5 0 0
  endloop
endfacet
facet normal 0 -0 -1
  outer loop
    vertex -2.5 125 0
    vertex -2.5 62.5 0
    vertex -3.75 62.5 0
  endloop
endfacet
facet normal -0 0 -1
  outer loop
    vertex -2.5 62.5 0
    vertex -3.75 0 0
    vertex -3.75 62.5 0
  endloop
endfacet
facet normal 0 -0 -1
  outer loop
    vertex -2.5 62.5 0
    vertex -2.5 0 0
    vertex -3.75 0 0
  endloop
endfacet
facet normal 0 -0 -1
  outer loop
    vertex -3.75 62.5 0
    vertex -3.75 0 0
    vertex -5 0 0
  endloop
endfacet
facet normal 0 -0 -1
  outer loop
    vertex -5 250 0
    vertex -5 187.5 0
    vertex -6.25 187.5 0
  endloop
endfacet
facet normal -0 0 -1
  outer loop
    vertex -5 187.5 0
    vertex -6.25 125 0
    vertex -6.25 187.5 0
  endloop
endfacet
facet normal 0 -0 -1
  outer loop
    vertex -5 187.5 0
    vertex -5 125 0
    vertex -6.25 125 0
  endloop
endfacet
facet normal 0 -0 -1
  outer loop
    vertex -6.25 187.5 0
    vertex -6.25 125 0
    vertex -7.5 125 0
  endloop
endfacet
facet normal -0 0 -1
  outer loop
    vertex -5 125 0
    vertex -6.25 62.5 0
    vertex -6.25 125 0
  endloop
endfacet
facet normal 0 0 -1
  outer loop
    vertex -6.25 62.5 0
    vertex -7.5 62.5 0
    vertex -6.25 125 0
  endloop
endfacet
facet normal -0 0 -1
  outer loop
    vertex -6.25 62.5 0
    vertex -7.5 0 0
    vertex -7.5 62.5 0
  endloop
endfacet
facet normal -0 0 -1
  outer loop
    vertex -6.25 125 0
    vertex -7.5 62.5 0
    vertex -7.5 125 0
  endloop
endfacet
facet normal 0 -0 -1
  outer loop
    vertex -5 125 0
    vertex -5 62.5 0
    vertex -6.25 62.5 0
  endloop
endfacet
facet normal -0 0 -1
  outer loop
    vertex -5 62.5 0
    vertex -6.25 0 0
    vertex -6.25 62.5 0
  endloop
endfacet
facet normal 0 -0 -1
  outer loop
    vertex -5 62.5 0
    vertex -5 0 0
    vertex -6.25 0 0
  endloop
endfacet
facet normal 0 -0 -1
  outer loop
    vertex -6.25 62.5 0
    vertex -6.25 0 0
    vertex -7.5 0 0
  endloop
endfacet
facet normal 0 -0 -1
  outer loop
    vertex -7.5 125 0
    vertex -7.5 62.5 0
    vertex -8.75 62.5 0
  endloop
endfacet
facet normal -0 0 -1
  outer loop
    vertex -7.5 62.5 0
    vertex -8.75 0 0
    vertex -8.75 62.5 0
  endloop
endfacet
facet normal 0 -0 -1
  outer loop
    vertex -7.5 62.5 0
    vertex -7.5 0 0
    vertex -8.75 0 0
  endloop
endfacet
facet normal 0 -0 -1
  outer loop
    vertex -8.75 62.5 0
    vertex -8.75 0 0
    vertex -10 0 0
  endloop
endfacet
facet normal 0 0 -1
  outer loop
    vertex -10 0 0
    vertex -10 62.5 0
    vertex -8.75 62.5 0
  endloop
endfacet
facet normal 0 0 -1
  outer loop
    vertex -10 62.5 0
    vertex -8.75 125 0
    vertex -8.75 62.5 0
  endloop
endfacet
facet normal 0 0 -1
  outer loop
    vertex -10 62.5 0
    vertex -10 125 0
    vertex -8.75 125 0
  endloop
endfacet
facet normal 0 0 -1
  outer loop
    vertex -8.75 62.5 0
    vertex -8.75 125 0
    vertex -7.5 125 0
  endloop
endfacet
facet normal 0 0 -1
  outer loop
    vertex -10 125 0
    vertex -8.75 187.5 0
    vertex -8.75 125 0
  endloop
endfacet
facet normal 0 0 -1
  outer loop
    vertex -8.75 187.5 0
    vertex -7.5 187.5 0
    vertex -8.75 125 0
  endloop
endfacet
facet normal 0 0 -1
  outer loop
    vertex -8.75 187.5 0
    vertex -7.5 250 0
    vertex -7.5 187.5 0
  endloop
endfacet
facet normal 0 0 -1
  outer loop
    vertex -8.75 125 0
    vertex -7.5 187.5 0
    vertex -7.5 125 0
  endloop
endfacet
facet normal 0 0 -1
  outer loop
    vertex -10 125 0
    vertex -10 187.5 0
    vertex -8.75 187.5 0
  endloop
endfacet
facet normal 0 0 -1
  outer loop
    vertex -10 187.5 0
    vertex -8.75 250 0
    vertex -8.75 187.5 0
  endloop
endfacet
facet normal 0 0 -1
  outer loop
    vertex -10 187.5 0
    vertex -10 250 0
    vertex -8.75 250 0
  endloop
endfacet
facet normal 0 0 -1
  outer loop
    vertex -8.75 187.5 0
    vertex -8.75 250 0
    vertex -7.5 250 0
  endloop
endfacet
facet normal 0 0 -1
  outer loop
    vertex -7.5 125 0
    vertex -7.5 187.5 0
    vertex -6.25 187.5 0
  endloop
endfacet
facet normal 0 0 -1
  outer loop
    vertex -7.5 187.5 0
    vertex -6.25 250 0
    vertex -6.25 187.5 0
  endloop
endfacet
facet normal 0 0 -1
  outer loop
    vertex -7.5 187.5 0
    vertex -7.5 250 0
    vertex -6.25 250 0
  endloop
endfacet
facet normal 0 0 -1
  outer loop
    vertex -6.25 187.5 0
    vertex -6.25 250 0
    vertex -5 250 0
  endloop
endfacet
facet normal 0 0 -1
  outer loop
    vertex -10 250 0
    vertex -8.75 312.5 0
    vertex -8.75 250 0
  endloop
endfacet
facet normal 0 0 -1
  outer loop
    vertex -8.75 312.5 0
    vertex -7.5 312.5 0
    vertex -8.75 250 0
  endloop
endfacet
facet normal 0 0 -1
  outer loop
    vertex -8.75 312.5 0
    vertex -7.5 375 0
    vertex -7.5 312.5 0
  endloop
endfacet
facet normal 0 0 -1
  outer loop
    vertex -8.75 250 0
    vertex -7.5 312.5 0
    vertex -7.5 250 0
  endloop
endfacet
facet normal 0 0 -1
  outer loop
    vertex -7.5 375 0
    vertex -6.25 375 0
    vertex -7.5 312.5 0
  endloop
endfacet
facet normal 0 -0 -1
  outer loop
    vertex -6.25 375 0
    vertex -6.25 312.5 0
    vertex -7.5 312.5 0
  endloop
endfacet
facet normal 0 0 -1
  outer loop
    vertex -6.25 375 0
    vertex -5 375 0
    vertex -6.25 312.5 0
  endloop
endfacet
facet normal 0 0 -1
  outer loop
    vertex -7.5 312.5 0
    vertex -6.25 312.5 0
    vertex -7.5 250 0
  endloop
endfacet
facet normal 0 0 -1
  outer loop
    vertex -7.5 375 0
    vertex -6.25 437.5 0
    vertex -6.25 375 0
  endloop
endfacet
facet normal 0 0 -1
  outer loop
    vertex -6.25 437.5 0
    vertex -5 437.5 0
    vertex -6.25 375 0
  endloop
endfacet
facet normal 0 0 -1
  outer loop
    vertex -6.25 437.5 0
    vertex -5 500 0
    vertex -5 437.5 0
  endloop
endfacet
facet normal 0 0 -1
  outer loop
    vertex -6.25 375 0
    vertex -5 437.5 0
    vertex -5 375 0
  endloop
endfacet
facet normal 0 0 -1
  outer loop
    vertex -7.5 250 0
    vertex -6.25 312.5 0
    vertex -6.25 250 0
  endloop
endfacet
facet normal 0 0 -1
  outer loop
    vertex -6.25 312.5 0
    vertex -5 312.5 0
    vertex -6.25 250 0
  endloop
endfacet
facet normal 0 0 -1
  outer loop
    vertex -6.25 312.5 0
    vertex -5 375 0
    vertex -5 312.5 0
  endloop
endfacet
facet normal 0 0 -1
  outer loop
    vertex -6.25 250 0
    vertex -5 312.5 0
    vertex -5 250 0
  endloop
endfacet
facet normal 0 0 -1
  outer loop
    vertex -10 250 0
    vertex -10 312.5 0
    vertex -8.75 312.5 0
  endloop
endfacet
facet normal 0 0 -1
  outer loop
    vertex -10 312.5 0
    vertex -8.75 375 0
    vertex -8.75 312.5 0
  endloop
endfacet
facet normal 0 0 -1
  outer loop
    vertex -10 312.5 0
    vertex -10 375 0
    vertex -8.75 375 0
  endloop
endfacet
facet normal 0 0 -1
  outer loop
    vertex -8.75 312.5 0
    vertex -8.75 375 0
    vertex -7.5 375 0
  endloop
endfacet
facet normal 0 0 -1
  outer loop
    vertex -10 375 0
    vertex -8.75 437.5 0
    vertex -8.75 375 0
  endloop
endfacet
facet normal 0 0 -1
  outer loop
    vertex -8.75 437.5 0
    vertex -7.5 437.5 0
    vertex -8.75 375 0
  endloop
endfacet
facet normal 0 0 -1
  outer loop
    vertex -8.75 437.5 0
    vertex -7.5 500 0
    vertex -7.5 437.5 0
  endloop
endfacet
facet normal 0 0 -1
  outer loop
    vertex -8.75 375 0
    vertex -7.5 437.5 0
    vertex -7.5 375 0
  endloop
endfacet
facet normal 0 0 -1
  outer loop
    vertex -10 375 0
    vertex -10 437.5 0
    vertex -8.75 437.5 0
  endloop
endfacet
facet normal 0 0 -1
  outer loop
    vertex -10 437.5 0
    vertex -8.75 500 0
    vertex -8.75 437.5 0
  endloop
endfacet
facet normal 0 0 -1
  outer loop
    vertex -10 437.5 0
    vertex -10 500 0
    vertex -8.75 500 0
  endloop
endfacet
facet normal 0 0 -1
  outer loop
    vertex -8.75 437.5 0
    vertex -8.75 500 0
    vertex -7.5 500 0
  endloop
endfacet
facet normal 0 0 -1
  outer loop
    vertex -7.5 375 0
    vertex -7.5 437.5 0
    vertex -6.25 437.5 0
  endloop
endfacet
facet normal 0 0 -1
  outer loop
    vertex -7.5 437.5 0
    vertex -6.25 500 0
    vertex -6.25 437.5 0
  endloop
endfacet
facet normal 0 0 -1
  outer loop
    vertex -7.5 437.5 0
    vertex -7.5 500 0
    vertex -6.25 500 0
  endloop
endfacet
facet normal 0 0 -1
  outer loop
    vertex -6.25 437.5 0
    vertex -6.25 500 0
    vertex -5 500 0
  endloop
endfacet
facet normal 0 0 -1
  outer loop
    vertex -5 250 0
    vertex -5 312.5 0
    vertex -3.75 312.5 0
  endloop
endfacet
facet normal 0 0 -1
  outer loop
    vertex -5 312.5 0
    vertex -3.75 375 0
    vertex -3.75 312.5 0
  endloop
endfacet
facet normal 0 0 -1
  outer loop
    vertex -5 312.5 0
    vertex -5 375 0
    vertex -3.75 375 0
  endloop
endfacet
facet normal 0 0 -1
  outer loop
    vertex -3.75 312.5 0
    vertex -3.75 375 0
    vertex -2.5 375 0
  endloop
endfacet
facet normal 0 0 -1
  outer loop
    vertex -5 375 0
    vertex -3.75 437.5 0
    vertex -3.75 375 0
  endloop
endfacet
facet normal 0 0 -1
  outer loop
    vertex -3.75 437.5 0
    vertex -2.5 437.5 0
    vertex -3.75 375 0
  endloop
endfacet
facet normal 0 0 -1
  outer loop
    vertex -3.75 437.5 0
    vertex -2.5 500 0
    vertex -2.5 437.5 0
  endloop
endfacet
facet normal 0 0 -1
  outer loop
    vertex -3.75 375 0
    vertex -2.5 437.5 0
    vertex -2.5 375 0
  endloop
endfacet
facet normal 0 0 -1
  outer loop
    vertex -5 375 0
    vertex -5 437.5 0
    vertex -3.75 437.5 0
  endloop
endfacet
facet normal 0 0 -1
  outer loop
    vertex -5 437.5 0
    vertex -3.75 500 0
    vertex -3.75 437.5 0
  endloop
endfacet
facet normal 0 0 -1
  outer loop
    vertex -5 437.5 0
    vertex -5 500 0
    vertex -3.75 500 0
  endloop
endfacet
facet normal 0 0 -1
  outer loop
    vertex -3.75 437.5 0
    vertex -3.75 500 0
    vertex -2.5 500 0
  endloop
endfacet
facet normal 0 0 -1
  outer loop
    vertex -2.5 375 0
    vertex -2.5 437.5 0
    vertex -1.25 437.5 0
  endloop
endfacet
facet normal 0 0 -1
  outer loop
    vertex -2.5 437.5 0
    vertex -1.25 500 0
    vertex -1.25 437.5 0
  endloop
endfacet
facet normal 0 0 -1
  outer loop
    vertex -2.5 437.5 0
    vertex -2.5 500 0
    vertex -1.25 500 0
  endloop
endfacet
facet normal 0 0 -1
  outer loop
    vertex -1.25 437.5 0
    vertex -1.25 500 0
    vertex 0 500 0
  endloop
endfacet
facet normal 0 0 -1
  outer loop
    vertex -10 500 0
    vertex -8.75 562.5 0
    vertex -8.75 500 0
  endloop
endfacet
facet normal 0 0 -1
  outer loop
    vertex -8.75 562.5 0
    vertex -7.5 562.5 0
    vertex -8.75 500 0
  endloop
endfacet
facet normal 0 0 -1
  outer loop
    vertex -8.75 562.5 0
    vertex -7.5 625 0
    vertex -7.5 562.5 0
  endloop
endfacet
facet normal 0 0 -1
  outer loop
    vertex -8.75 500 0
    vertex -7.5 562.5 0
    vertex -7.5 500 0
  endloop
endfacet
facet normal 0 0 -1
  outer loop
    vertex -7.5 625 0
    vertex -6.25 625 0
    vertex -7.5 562.5 0
  endloop
endfacet
facet normal 0 -0 -1
  outer loop
    vertex -6.25 625 0
    vertex -6.25 562.5 0
    vertex -7.5 562.5 0
  endloop
endfacet
facet normal 0 0 -1
  outer loop
    vertex -6.25 625 0
    vertex -5 625 0
    vertex -6.25 562.5 0
  endloop
endfacet
facet normal 0 0 -1
  outer loop
    vertex -7.5 562.5 0
    vertex -6.25 562.5 0
    vertex -7.5 500 0
  endloop
endfacet
facet normal 0 0 -1
  outer loop
    vertex -7.5 625 0
    vertex -6.25 687.5 0
    vertex -6.25 625 0
  endloop
endfacet
facet normal 0 0 -1
  outer loop
    vertex -6.25 687.5 0
    vertex -5 687.5 0
    vertex -6.25 625 0
  endloop
endfacet
facet normal 0 0 -1
  outer loop
    vertex -6.25 687.5 0
    vertex -5 750 0
    vertex -5 687.5 0
  endloop
endfacet
facet normal 0 0 -1
  outer loop
    vertex -6.25 625 0
    vertex -5 687.5 0
    vertex -5 625 0
  endloop
endfacet
facet normal 0 0 -1
  outer loop
    vertex -7.5 500 0
    vertex -6.25 562.5 0
    vertex -6.25 500 0
  endloop
endfacet
facet normal 0 0 -1
  outer loop
    vertex -6.25 562.5 0
    vertex -5 562.5 0
    vertex -6.25 500 0
  endloop
endfacet
facet normal 0 0 -1
  outer loop
    vertex -6.25 562.5 0
    vertex -5 625 0
    vertex -5 562.5 0
  endloop
endfacet
facet normal 0 0 -1
  outer loop
    vertex -6.25 500 0
    vertex -5 562.5 0
    vertex -5 500 0
  endloop
endfacet
facet normal 0 0 -1
  outer loop
    vertex -5 750 0
    vertex -3.75 750 0
    vertex -5 687.5 0
  endloop
endfacet
facet normal 0 -0 -1
  outer loop
    vertex -3.75 750 0
    vertex -3.75 687.5 0
    vertex -5 687.5 0
  endloop
endfacet
facet normal 0 0 -1
  outer loop
    vertex -3.75 750 0
    vertex -2.5 750 0
    vertex -3.75 687.5 0
  endloop
endfacet
facet normal 0 0 -1
  outer loop
    vertex -5 687.5 0
    vertex -3.75 687.5 0
    vertex -5 625 0
  endloop
endfacet
facet normal 0 -0 -1
  outer loop
    vertex -2.5 750 0
    vertex -2.5 687.5 0
    vertex -3.75 687.5 0
  endloop
endfacet
facet normal -0 0 -1
  outer loop
    vertex -2.5 687.5 0
    vertex -3.75 625 0
    vertex -3.75 687.5 0
  endloop
endfacet
facet normal 0 -0 -1
  outer loop
    vertex -2.5 687.5 0
    vertex -2.5 625 0
    vertex -3.75 625 0
  endloop
endfacet
facet normal 0 -0 -1
  outer loop
    vertex -3.75 687.5 0
    vertex -3.75 625 0
    vertex -5 625 0
  endloop
endfacet
facet normal 0 0 -1
  outer loop
    vertex -2.5 750 0
    vertex -1.25 750 0
    vertex -2.5 687.5 0
  endloop
endfacet
facet normal 0 -0 -1
  outer loop
    vertex -1.25 750 0
    vertex -1.25 687.5 0
    vertex -2.5 687.5 0
  endloop
endfacet
facet normal 0 0 -1
  outer loop
    vertex -1.25 750 0
    vertex 0 750 0
    vertex -1.25 687.5 0
  endloop
endfacet
facet normal 0 0 -1
  outer loop
    vertex -2.5 687.5 0
    vertex -1.25 687.5 0
    vertex -2.5 625 0
  endloop
endfacet
facet normal 0 0 -1
  outer loop
    vertex -5 625 0
    vertex -3.75 625 0
    vertex -5 562.5 0
  endloop
endfacet
facet normal 0 -0 -1
  outer loop
    vertex -3.75 625 0
    vertex -3.75 562.5 0
    vertex -5 562.5 0
  endloop
endfacet
facet normal 0 0 -1
  outer loop
    vertex -3.75 625 0
    vertex -2.5 625 0
    vertex -3.75 562.5 0
  endloop
endfacet
facet normal 0 0 -1
  outer loop
    vertex -5 562.5 0
    vertex -3.75 562.5 0
    vertex -5 500 0
  endloop
endfacet
facet normal 0 0 -1
  outer loop
    vertex -5 750 0
    vertex -3.75 812.5 0
    vertex -3.75 750 0
  endloop
endfacet
facet normal 0 0 -1
  outer loop
    vertex -3.75 812.5 0
    vertex -2.5 812.5 0
    vertex -3.75 750 0
  endloop
endfacet
facet normal 0 0 -1
  outer loop
    vertex -3.75 812.5 0
    vertex -2.5 875 0
    vertex -2.5 812.5 0
  endloop
endfacet
facet normal 0 0 -1
  outer loop
    vertex -3.75 750 0
    vertex -2.5 812.5 0
    vertex -2.5 750 0
  endloop
endfacet
facet normal 0 0 -1
  outer loop
    vertex -2.5 875 0
    vertex -1.25 875 0
    vertex -2.5 812.5 0
  endloop
endfacet
facet normal 0 -0 -1
  outer loop
    vertex -1.25 875 0
    vertex -1.25 812.5 0
    vertex -2.5 812.5 0
  endloop
endfacet
facet normal 0 0 -1
  outer loop
    vertex -1.25 875 0
    vertex 0 875 0
    vertex -1.25 812.5 0
  endloop
endfacet
facet normal 0 0 -1
  outer loop
    vertex -2.5 812.5 0
    vertex -1.25 812.5 0
    vertex -2.5 750 0
  endloop
endfacet
facet normal 0 0 -1
  outer loop
    vertex -2.5 875 0
    vertex -1.25 937.5 0
    vertex -1.25 875 0
  endloop
endfacet
facet normal 0 0 -1
  outer loop
    vertex -1.25 937.5 0
    vertex 0 937.5 0
    vertex -1.25 875 0
  endloop
endfacet
facet normal 0 0 -1
  outer loop
    vertex -1.25 937.5 0
    vertex 0 1000 0
    vertex 0 937.5 0
  endloop
endfacet
facet normal 0 0 -1
  outer loop
    vertex -1.25 875 0
    vertex 0 937.5 0
    vertex 0 875 0
  endloop
endfacet
facet normal 0 0 -1
  outer loop
    vertex -2.5 750 0
    vertex -1.25 812.5 0
    vertex -1.25 750 0
  endloop
endfacet
facet normal 0 0 -1
  outer loop
    vertex -1.25 812.5 0
    vertex 0 812.5 0
    vertex -1.25 750 0
  endloop
endfacet
facet normal 0 0 -1
  outer loop
    vertex -1.25 812.5 0
    vertex 0 875 0
    vertex 0 812.5 0
  endloop
endfacet
facet normal 0 0 -1
  outer loop
    vertex -1.25 750 0
    vertex 0 812.5 0
    vertex 0 750 0
  endloop
endfacet
facet normal 0 0 -1
  outer loop
    vertex -5 500 0
    vertex -3.75 562.5 0
    vertex -3.75 500 0
  endloop
endfacet
facet normal 0 0 -1
  outer loop
    vertex -3.75 562.5 0
    vertex -2.5 562.5 0
    vertex -3.75 500 0
  endloop
endfacet
facet normal 0 0 -1
  outer loop
    vertex -3.75 562.5 0
    vertex -2.5 625 0
    vertex -2.5 562.5 0
  endloop
endfacet
facet normal 0 0 -1
  outer loop
    vertex -3.75 500 0
    vertex -2.5 562.5 0
    vertex -2.5 500 0
  endloop
endfacet
facet normal 0 0 -1
  outer loop
    vertex -2.5 625 0
    vertex -1.25 625 0
    vertex -2.5 562.5 0
  endloop
endfacet
facet normal 0 -0 -1
  outer loop
    vertex -1.25 625 0
    vertex -1.25 562.5 0
    vertex -2.5 562.5 0
  endloop
endfacet
facet normal 0 0 -1
  outer loop
    vertex -1.25 625 0
    vertex 0 625 0
    vertex -1.25 562.5 0
  endloop
endfacet
facet normal 0 0 -1
  outer loop
    vertex -2.5 562.5 0
    vertex -1.25 562.5 0
    vertex -2.5 500 0
  endloop
endfacet
facet normal 0 0 -1
  outer loop
    vertex -2.5 625 0
    vertex -1.25 687.5 0
    vertex -1.25 625 0
  endloop
endfacet
facet normal 0 0 -1
  outer loop
    vertex -1.25 687.5 0
    vertex 0 687.5 0
    vertex -1.25 625 0
  endloop
endfacet
facet normal 0 0 -1
  outer loop
    vertex -1.25 687.5 0
    vertex 0 750 0
    vertex 0 687.5 0
  endloop
endfacet
facet normal 0 0 -1
  outer loop
    vertex -1.25 625 0
    vertex 0 687.5 0
    vertex 0 625 0
  endloop
endfacet
facet normal 0 0 -1
  outer loop
    vertex -2.5 500 0
    vertex -1.25 562.5 0
    vertex -1.25 500 0
  endloop
endfacet
facet normal 0 0 -1
  outer loop
    vertex -1.25 562.5 0
    vertex 0 562.5 0
    vertex -1.25 500 0
  endloop
endfacet
facet normal 0 0 -1
  outer loop
    vertex -1.25 562.5 0
    vertex 0 625 0
    vertex 0 562.5 0
  endloop
endfacet
facet normal 0 0 -1
  outer loop
    vertex -1.25 500 0
    vertex 0 562.5 0
    vertex 0 500 0
  endloop
endfacet
facet normal 0 0 -1
  outer loop
    vertex -10 500 0
    vertex -10 562.5 0
    vertex -8.75 562.5 0
  endloop
endfacet
facet normal 0 0 -1
  outer loop
    vertex -10 562.5 0
    vertex -8.75 625 0
    vertex -8.75 562.5 0
  endloop
endfacet
facet normal 0 0 -1
  outer loop
    vertex -10 562.5 0
    vertex -10 625 0
    vertex -8.75 625 0
  endloop
endfacet
facet normal 0 0 -1
  outer loop
    vertex -8.75 562.5 0
    vertex -8.75 625 0
    vertex -7.5 625 0
  endloop
endfacet
facet normal 0 0 -1
  outer loop
    vertex -10 625 0
    vertex -8.75 687.5 0
    vertex -8.75 625 0
  endloop
endfacet
facet normal 0 0 -1
  outer loop
    vertex -8.75 687.5 0
    vertex -7.5 687.5 0
    vertex -8.75 625 0
  endloop
endfacet
facet normal 0 0 -1
  outer loop
    vertex -8.75 687.5 0
    vertex -7.5 750 0
    vertex -7.5 687.5 0
  endloop
endfacet
facet normal 0 0 -1
  outer loop
    vertex -8.75 625 0
    vertex -7.5 687.5 0
    vertex -7.5 625 0
  endloop
endfacet
facet normal 0 0 -1
  outer loop
    vertex -10 625 0
    vertex -10 687.5 0
    vertex -8.75 687.5 0
  endloop
endfacet
facet normal 0 0 -1
  outer loop
    vertex -10 687.5 0
    vertex -8.75 750 0
    vertex -8.75 687.5 0
  endloop
endfacet
facet normal 0 0 -1
  outer loop
    vertex -10 687.5 0
    vertex -10 750 0
    vertex -8.75 750 0
  endloop
endfacet
facet normal 0 0 -1
  outer loop
    vertex -8.75 687.5 0
    vertex -8.75 750 0
    vertex -7.5 750 0
  endloop
endfacet
facet normal 0 0 -1
  outer loop
    vertex -7.5 625 0
    vertex -7.5 687.5 0
    vertex -6.25 687.5 0
  endloop
endfacet
facet normal 0 0 -1
  outer loop
    vertex -7.5 687.5 0
    vertex -6.25 750 0
    vertex -6.25 687.5 0
  endloop
endfacet
facet normal 0 0 -1
  outer loop
    vertex -7.5 687.5 0
    vertex -7.5 750 0
    vertex -6.25 750 0
  endloop
endfacet
facet normal 0 0 -1
  outer loop
    vertex -6.25 687.5 0
    vertex -6.25 750 0
    vertex -5 750 0
  endloop
endfacet
facet normal 0 0 -1
  outer loop
    vertex -10 750 0
    vertex -8.75 812.5 0
    vertex -8.75 750 0
  endloop
endfacet
facet normal 0 0 -1
  outer loop
    vertex -8.75 812.5 0
    vertex -7.5 812.5 0
    vertex -8.75 750 0
  endloop
endfacet
facet normal 0 0 -1
  outer loop
    vertex -8.75 812.5 0
    vertex -7.5 875 0
    vertex -7.5 812.5 0
  endloop
endfacet
facet normal 0 0 -1
  outer loop
    vertex -8.75 750 0
    vertex -7.5 812.5 0
    vertex -7.5 750 0
  endloop
endfacet
facet normal 0 0 -1
  outer loop
    vertex -7.5 875 0
    vertex -6.25 875 0
    vertex -7.5 812.5 0
  endloop
endfacet
facet normal 0 -0 -1
  outer loop
    vertex -6.25 875 0
    vertex -6.25 812.5 0
    vertex -7.5 812.5 0
  endloop
endfacet
facet normal 0 0 -1
  outer loop
    vertex -6.25 875 0
    vertex -5 875 0
    vertex -6.25 812.5 0
  endloop
endfacet
facet normal 0 0 -1
  outer loop
    vertex -7.5 812.5 0
    vertex -6.25 812.5 0
    vertex -7.5 750 0
  endloop
endfacet
facet normal 0 0 -1
  outer loop
    vertex -7.5 875 0
    vertex -6.25 937.5 0
    vertex -6.25 875 0
  endloop
endfacet
facet normal 0 0 -1
  outer loop
    vertex -6.25 937.5 0
    vertex -5 937.5 0
    vertex -6.25 875 0
  endloop
endfacet
facet normal 0 0 -1
  outer loop
    vertex -6.25 937.5 0
    vertex -5 1000 0
    vertex -5 937.5 0
  endloop
endfacet
facet normal 0 0 -1
  outer loop
    vertex -6.25 875 0
    vertex -5 937.5 0
    vertex -5 875 0
  endloop
endfacet
facet normal 0 0 -1
  outer loop
    vertex -7.5 750 0
    vertex -6.25 812.5 0
    vertex -6.25 750 0
  endloop
endfacet
facet normal 0 0 -1
  outer loop
    vertex -6.25 812.5 0
    vertex -5 812.5 0
    vertex -6.25 750 0
  endloop
endfacet
facet normal 0 0 -1
  outer loop
    vertex -6.25 812.5 0
    vertex -5 875 0
    vertex -5 812.5 0
  endloop
endfacet
facet normal 0 0 -1
  outer loop
    vertex -6.25 750 0
    vertex -5 812.5 0
    vertex -5 750 0
  endloop
endfacet
facet normal 0 0 -1
  outer loop
    vertex -10 750 0
    vertex -10 812.5 0
    vertex -8.75 812.5 0
  endloop
endfacet
facet normal 0 0 -1
  outer loop
    vertex -10 812.5 0
    vertex -8.75 875 0
    vertex -8.75 812.5 0
  endloop
endfacet
facet normal 0 0 -1
  outer loop
    vertex -10 812.5 0
    vertex -10 875 0
    vertex -8.75 875 0
  endloop
endfacet
facet normal 0 0 -1
  outer loop
    vertex -8.75 812.5 0
    vertex -8.75 875 0
    vertex -7.5 875 0
  endloop
endfacet
facet normal 0 0 -1
  outer loop
    vertex -10 875 0
    vertex -8.75 937.5 0
    vertex -8.75 875 0
  endloop
endfacet
facet normal 0 0 -1
  outer loop
    vertex -8.75 937.5 0
    vertex -7.5 937.5 0
    vertex -8.75 875 0
  endloop
endfacet
facet normal 0 0 -1
  outer loop
    vertex -8.75 937.5 0
    vertex -7.5 1000 0
    vertex -7.5 937.5 0
  endloop
endfacet
facet normal 0 0 -1
  outer loop
    vertex -8.75 875 0
    vertex -7.5 937.5 0
    vertex -7.5 875 0
  endloop
endfacet
facet normal 0 0 -1
  outer loop
    vertex -10 875 0
    vertex -10 937.5 0
    vertex -8.75 937.5 0
  endloop
endfacet
facet normal 0 0 -1
  outer loop
    vertex -10 937.5 0
    vertex -8.75 1000 0
    vertex -8.75 937.5 0
  endloop
endfacet
facet normal 0 0 -1
  outer loop
    vertex -10 937.5 0
    vertex -10 1000 0
    vertex -8.75 1000 0
  endloop
endfacet
facet normal 0 0 -1
  outer loop
    vertex -8.75 937.5 0
    vertex -8.75 1000 0
    vertex -7.5 1000 0
  endloop
endfacet
facet normal 0 0 -1
  outer loop
    vertex -7.5 875 0
    vertex -7.5 937.5 0
    vertex -6.25 937.5 0
  endloop
endfacet
facet normal 0 0 -1
  outer loop
    vertex -7.5 937.5 0
    vertex -6.25 1000 0
    vertex -6.25 937.5 0
  endloop
endfacet
facet normal 0 0 -1
  outer loop
    vertex -7.5 937.5 0
    vertex -7.5 1000 0
    vertex -6.25 1000 0
  endloop
endfacet
facet normal 0 0 -1
  outer loop
    vertex -6.25 937.5 0
    vertex -6.25 1000 0
    vertex -5 1000 0
  endloop
endfacet
facet normal 0 0 -1
  outer loop
    vertex -5 750 0
    vertex -5 812.5 0
    vertex -3.75 812.5 0
  endloop
endfacet
facet normal 0 0 -1
  outer loop
    vertex -5 812.5 0
    vertex -3.75 875 0
    vertex -3.75 812.5 0
  endloop
endfacet
facet normal 0 0 -1
  outer loop
    vertex -5 812.5 0
    vertex -5 875 0
    vertex -3.75 875 0
  endloop
endfacet
facet normal 0 0 -1
  outer loop
    vertex -3.75 812.5 0
    vertex -3.75 875 0
    vertex -2.5 875 0
  endloop
endfacet
facet normal 0 0 -1
  outer loop
    vertex -5 875 0
    vertex -3.75 937.5 0
    vertex -3.75 875 0
  endloop
endfacet
facet normal 0 0 -1
  outer loop
    vertex -3.75 937.5 0
    vertex -2.5 937.5 0
    vertex -3.75 875 0
  endloop
endfacet
facet normal 0 0 -1
  outer loop
    vertex -3.75 937.5 0
    vertex -2.5 1000 0
    vertex -2.5 937.5 0
  endloop
endfacet
facet normal 0 0 -1
  outer loop
    vertex -3.75 875 0
    vertex -2.5 937.5 0
    vertex -2.5 875 0
  endloop
endfacet
facet normal 0 0 -1
  outer loop
    vertex -5 875 0
    vertex -5 937.5 0
    vertex -3.75 937.5 0
  endloop
endfacet
facet normal 0 0 -1
  outer loop
    vertex -5 937.5 0
    vertex -3.75 1000 0
    vertex -3.75 937.5 0
  endloop
endfacet
facet normal 0 0 -1
  outer loop
    vertex -5 937.5 0
    vertex -5 1000 0
    vertex -3.75 1000 0
  endloop
endfacet
facet normal 0 0 -1
  outer loop
    vertex -3.75 937.5 0
    vertex -3.75 1000 0
    vertex -2.5 1000 0
  endloop
endfacet
facet normal 0 0 -1
  outer loop
    vertex -2.5 875 0
    vertex -2.5 937.5 0
    vertex -1.25 937.5 0
  endloop
endfacet
facet normal 0 0 -1
  outer loop
    vertex -2.5 937.5 0
    vertex -1.25 1000 0
    vertex -1.25 937.5 0
  endloop
endfacet
facet normal 0 0 -1
  outer loop
    vertex -2.5 937.5 0
    vertex -2.5 1000 0
    vertex -1.25 1000 0
  endloop
endfacet
facet normal 0 0 -1
  outer loop
    vertex -1.25 937.5 0
    vertex -1.25 1000 0
    vertex 0 1000 0
  endloop
endfacet
facet normal 0 0 -1
  outer loop
    vertex 0 500 0
    vertex 0 562.5 0
    vertex 1.25 562.5 0
  endloop
endfacet
facet normal 0 0 -1
  outer loop
    vertex 0 562.5 0
    vertex 1.25 625 0
    vertex 1.25 562.5 0
  endloop
endfacet
facet normal 0 0 -1
  outer loop
    vertex 0 562.5 0
    vertex 0 625 0
    vertex 1.25 625 0
  endloop
endfacet
facet normal 0 0 -1
  outer loop
    vertex 1.25 562.5 0
    vertex 1.25 625 0
    vertex 2.5 625 0
  endloop
endfacet
facet normal 0 0 -1
  outer loop
    vertex 0 625 0
    vertex 1.25 687.5 0
    vertex 1.25 625 0
  endloop
endfacet
facet normal 0 0 -1
  outer loop
    vertex 1.25 687.5 0
    vertex 2.5 687.5 0
    vertex 1.25 625 0
  endloop
endfacet
facet normal 0 0 -1
  outer loop
    vertex 1.25 687.5 0
    vertex 2.5 750 0
    vertex 2.5 687.5 0
  endloop
endfacet
facet normal 0 0 -1
  outer loop
    vertex 1.25 625 0
    vertex 2.5 687.5 0
    vertex 2.5 625 0
  endloop
endfacet
facet normal 0 0 -1
  outer loop
    vertex 0 625 0
    vertex 0 687.5 0
    vertex 1.25 687.5 0
  endloop
endfacet
facet normal 0 0 -1
  outer loop
    vertex 0 687.5 0
    vertex 1.25 750 0
    vertex 1.25 687.5 0
  endloop
endfacet
facet normal 0 0 -1
  outer loop
    vertex 0 687.5 0
    vertex 0 750 0
    vertex 1.25 750 0
  endloop
endfacet
facet normal 0 0 -1
  outer loop
    vertex 1.25 687.5 0
    vertex 1.25 750 0
    vertex 2.5 750 0
  endloop
endfacet
facet normal 0 0 -1
  outer loop
    vertex 2.5 625 0
    vertex 2.5 687.5 0
    vertex 3.75 687.5 0
  endloop
endfacet
facet normal 0 0 -1
  outer loop
    vertex 2.5 687.5 0
    vertex 3.75 750 0
    vertex 3.75 687.5 0
  endloop
endfacet
facet normal 0 0 -1
  outer loop
    vertex 2.5 687.5 0
    vertex 2.5 750 0
    vertex 3.75 750 0
  endloop
endfacet
facet normal 0 0 -1
  outer loop
    vertex 3.75 687.5 0
    vertex 3.75 750 0
    vertex 5 750 0
  endloop
endfacet
facet normal 0 0 -1
  outer loop
    vertex 0 750 0
    vertex 1.25 812.5 0
    vertex 1.25 750 0
  endloop
endfacet
facet normal 0 0 -1
  outer loop
    vertex 1.25 812.5 0
    vertex 2.5 812.5 0
    vertex 1.25 750 0
  endloop
endfacet
facet normal 0 0 -1
  outer loop
    vertex 1.25 812.5 0
    vertex 2.5 875 0
    vertex 2.5 812.5 0
  endloop
endfacet
facet normal 0 0 -1
  outer loop
    vertex 1.25 750 0
    vertex 2.5 812.5 0
    vertex 2.5 750 0
  endloop
endfacet
facet normal 0 0 -1
  outer loop
    vertex 2.5 875 0
    vertex 3.75 875 0
    vertex 2.5 812.5 0
  endloop
endfacet
facet normal 0 -0 -1
  outer loop
    vertex 3.75 875 0
    vertex 3.75 812.5 0
    vertex 2.5 812.5 0
  endloop
endfacet
facet normal 0 0 -1
  outer loop
    vertex 3.75 875 0
    vertex 5 875 0
    vertex 3.75 812.5 0
  endloop
endfacet
facet normal 0 0 -1
  outer loop
    vertex 2.5 812.5 0
    vertex 3.75 812.5 0
    vertex 2.5 750 0
  endloop
endfacet
facet normal 0 0 -1
  outer loop
    vertex 2.5 875 0
    vertex 3.75 937.5 0
    vertex 3.75 875 0
  endloop
endfacet
facet normal 0 0 -1
  outer loop
    vertex 3.75 937.5 0
    vertex 5 937.5 0
    vertex 3.75 875 0
  endloop
endfacet
facet normal 0 0 -1
  outer loop
    vertex 3.75 937.5 0
    vertex 5 1000 0
    vertex 5 937.5 0
  endloop
endfacet
facet normal 0 0 -1
  outer loop
    vertex 3.75 875 0
    vertex 5 937.5 0
    vertex 5 875 0
  endloop
endfacet
facet normal 0 0 -1
  outer loop
    vertex 2.5 750 0
    vertex 3.75 812.5 0
    vertex 3.75 750 0
  endloop
endfacet
facet normal 0 0 -1
  outer loop
    vertex 3.75 812.5 0
    vertex 5 812.5 0
    vertex 3.75 750 0
  endloop
endfacet
facet normal 0 0 -1
  outer loop
    vertex 3.75 812.5 0
    vertex 5 875 0
    vertex 5 812.5 0
  endloop
endfacet
facet normal 0 0 -1
  outer loop
    vertex 3.75 750 0
    vertex 5 812.5 0
    vertex 5 750 0
  endloop
endfacet
facet normal 0 0 -1
  outer loop
    vertex 0 750 0
    vertex 0 812.5 0
    vertex 1.25 812.5 0
  endloop
endfacet
facet normal 0 0 -1
  outer loop
    vertex 0 812.5 0
    vertex 1.25 875 0
    vertex 1.25 812.5 0
  endloop
endfacet
facet normal 0 0 -1
  outer loop
    vertex 0 812.5 0
    vertex 0 875 0
    vertex 1.25 875 0
  endloop
endfacet
facet normal 0 0 -1
  outer loop
    vertex 1.25 812.5 0
    vertex 1.25 875 0
    vertex 2.5 875 0
  endloop
endfacet
facet normal 0 0 -1
  outer loop
    vertex 0 875 0
    vertex 1.25 937.5 0
    vertex 1.25 875 0
  endloop
endfacet
facet normal 0 0 -1
  outer loop
    vertex 1.25 937.5 0
    vertex 2.5 937.5 0
    vertex 1.25 875 0
  endloop
endfacet
facet normal 0 0 -1
  outer loop
    vertex 1.25 937.5 0
    vertex 2.5 1000 0
    vertex 2.5 937.5 0
  endloop
endfacet
facet normal 0 0 -1
  outer loop
    vertex 1.25 875 0
    vertex 2.5 937.5 0
    vertex 2.5 875 0
  endloop
endfacet
facet normal 0 0 -1
  outer loop
    vertex 0 875 0
    vertex 0 937.5 0
    vertex 1.25 937.5 0
  endloop
endfacet
facet normal 0 0 -1
  outer loop
    vertex 0 937.5 0
    vertex 1.25 1000 0
    vertex 1.25 937.5 0
  endloop
endfacet
facet normal 0 0 -1
  outer loop
    vertex 0 937.5 0
    vertex 0 1000 0
    vertex 1.25 1000 0
  endloop
endfacet
facet normal 0 0 -1
  outer loop
    vertex 1.25 937.5 0
    vertex 1.25 1000 0
    vertex 2.5 1000 0
  endloop
endfacet
facet normal 0 0 -1
  outer loop
    vertex 2.5 875 0
    vertex 2.5 937.5 0
    vertex 3.75 937.5 0
  endloop
endfacet
facet normal 0 0 -1
  outer loop
    vertex 2.5 937.5 0
    vertex 3.75 1000 0
    vertex 3.75 937.5 0
  endloop
endfacet
facet normal 0 0 -1
  outer loop
    vertex 2.5 937.5 0
    vertex 2.5 1000 0
    vertex 3.75 1000 0
  endloop
endfacet
facet normal 0 0 -1
  outer loop
    vertex 3.75 937.5 0
    vertex 3.75 1000 0
    vertex 5 1000 0
  endloop
endfacet
facet normal 0 0 -1
  outer loop
    vertex 5 750 0
    vertex 5 812.5 0
    vertex 6.25 812.5 0
  endloop
endfacet
facet normal 0 0 -1
  outer loop
    vertex 5 812.5 0
    vertex 6.25 875 0
    vertex 6.25 812.5 0
  endloop
endfacet
facet normal 0 0 -1
  outer loop
    vertex 5 812.5 0
    vertex 5 875 0
    vertex 6.25 875 0
  endloop
endfacet
facet normal 0 0 -1
  outer loop
    vertex 6.25 812.5 0
    vertex 6.25 875 0
    vertex 7.5 875 0
  endloop
endfacet
facet normal 0 0 -1
  outer loop
    vertex 5 875 0
    vertex 6.25 937.5 0
    vertex 6.25 875 0
  endloop
endfacet
facet normal 0 0 -1
  outer loop
    vertex 6.25 937.5 0
    vertex 7.5 937.5 0
    vertex 6.25 875 0
  endloop
endfacet
facet normal 0 0 -1
  outer loop
    vertex 6.25 937.5 0
    vertex 7.5 1000 0
    vertex 7.5 937.5 0
  endloop
endfacet
facet normal 0 0 -1
  outer loop
    vertex 6.25 875 0
    vertex 7.5 937.5 0
    vertex 7.5 875 0
  endloop
endfacet
facet normal 0 0 -1
  outer loop
    vertex 5 875 0
    vertex 5 937.5 0
    vertex 6.25 937.5 0
  endloop
endfacet
facet normal 0 0 -1
  outer loop
    vertex 5 937.5 0
    vertex 6.25 1000 0
    vertex 6.25 937.5 0
  endloop
endfacet
facet normal 0 0 -1
  outer loop
    vertex 5 937.5 0
    vertex 5 1000 0
    vertex 6.25 1000 0
  endloop
endfacet
facet normal 0 0 -1
  outer loop
    vertex 6.25 937.5 0
    vertex 6.25 1000 0
    vertex 7.5 1000 0
  endloop
endfacet
facet normal 0 0 -1
  outer loop
    vertex 7.5 875 0
    vertex 7.5 937.5 0
    vertex 8.75 937.5 0
  endloop
endfacet
facet normal 0 0 -1
  outer loop
    vertex 7.5 937.5 0
    vertex 8.75 1000 0
    vertex 8.75 937.5 0
  endloop
endfacet
facet normal 0 0 -1
  outer loop
    vertex 7.5 937.5 0
    vertex 7.5 1000 0
    vertex 8.75 1000 0
  endloop
endfacet
facet normal 0 0 -1
  outer loop
    vertex 8.75 937.5 0
    vertex 8.75 1000 0
    vertex 10 1000 0
  endloop
endfacet
endsolid Created by Gmsh
